<svg width="16" height="16" viewBox="0 0 16 16" fill="none" xmlns="http://www.w3.org/2000/svg">
<path d="M12.7972 8.18346C12.7972 8.18346 13.9154 8.17658 13.9416 8.39691C13.9595 8.54287 13.6896 11.4209 13.6896 11.4209C13.6896 11.4209 14.5406 11.8533 14.7168 11.9634C14.9234 12.0929 15.0267 12.2733 14.9496 12.4289C14.8724 12.5845 14.7168 12.623 14.5034 12.5253C14.29 12.4289 12.9336 12.002 12.8744 11.8657C12.8151 11.7293 12.8936 9.44208 12.8936 9.44208L12.7972 8.18346Z" fill="#696E72"/>
<path d="M11.182 5.08785C11.182 5.08785 11.6144 4.62378 11.77 4.66096C11.9834 4.71329 12.5907 5.61112 12.7463 5.8824C12.9019 6.15368 13.2696 6.794 13.2696 6.794C13.2696 6.794 14.2776 6.59984 14.5296 6.56128C14.7816 6.52272 15.0529 6.61912 15.0721 6.87112C15.0914 7.12311 14.7045 7.23879 14.374 7.298C14.0449 7.35583 13.0562 7.58855 12.9584 7.51144C12.862 7.43295 11.182 5.08785 11.182 5.08785Z" fill="#696E72"/>
<path d="M2.96797 11.0904L3.23924 11.9428L2.91013 12.3697C2.91013 12.3697 4.17012 14.018 4.15084 14.2108C4.13156 14.4049 2.81374 15.7613 2.69669 15.8591C2.58102 15.9555 2.28633 16.0891 2.17341 15.9169C2.02469 15.6911 2.21197 15.4322 2.36758 15.2573C2.52318 15.0824 3.29845 14.2108 3.29845 14.2108C3.29845 14.2108 2.04535 12.7332 1.98063 12.3105C1.94069 12.0598 2.96797 11.0904 2.96797 11.0904Z" fill="#696E72"/>
<path d="M2.69667 7.38752C2.69667 7.38752 1.81123 7.06392 1.57163 7.21264C1.2976 7.38202 1.42291 10.7089 1.42291 10.7089C1.42291 10.7089 0.311637 11.4002 0.17531 11.4773C0.038983 11.5545 -0.0574098 11.7293 0.0389831 11.8849C0.135376 12.0405 0.368096 12.0006 0.658652 11.8849C0.949207 11.7693 1.84979 11.4002 1.99576 11.2653C2.24087 11.0394 2.14448 8.37073 2.14448 8.37073L2.57687 8.27985L2.69667 7.38752Z" fill="#696E72"/>
<path d="M6.28385 6.08897L9.754 3.82098C9.754 3.82098 10.4907 2.07627 10.4907 1.92066C10.4907 1.76506 9.44416 0.622113 9.44416 0.622113C9.44416 0.622113 9.85039 0.175952 9.61767 0.0217229C9.38495 -0.133883 8.70056 0.590441 8.72535 0.796997C8.7405 0.912669 9.71406 2.07627 9.71406 2.07627L8.95807 3.58826C8.95807 3.58826 8.04647 3.53042 7.91152 3.43265C7.77657 3.33488 7.82752 2.93554 7.52319 2.75377C7.28359 2.61056 7.01919 2.57889 7.01919 2.57889C7.01919 2.57889 6.96136 2.21122 7.15552 1.91929C7.34968 1.62735 8.14699 0.780473 7.95696 0.407294C7.73663 -0.0250965 7.39788 0.137394 7.33041 0.342573C7.26568 0.536736 7.48601 0.755686 7.48601 0.755686C7.48601 0.755686 6.82641 1.51168 6.67218 1.86007C6.51795 2.20846 6.57579 2.6739 6.57579 2.6739C6.57579 2.6739 5.64491 2.47423 5.12163 2.62846C4.59836 2.78407 4.09436 3.52629 4.09436 3.52629C4.09436 3.52629 3.66748 3.06085 3.3962 2.9259C3.12492 2.79095 2.93076 2.86807 2.52316 2.6739C2.11555 2.47974 2.01916 2.32551 2.01916 2.32551C2.01916 2.32551 2.05909 2.13824 1.9806 1.9964C1.90211 1.85319 1.657 1.78984 1.48349 1.90001C1.34579 1.98676 1.33201 2.23187 1.40087 2.37784C1.47798 2.54033 1.69142 2.55961 1.69142 2.55961C1.69142 2.55961 1.97509 2.908 2.3827 3.04433C2.81509 3.18892 2.91286 3.16 3.20341 3.27705C3.49397 3.3941 3.6303 3.70393 3.6303 3.70393C3.6303 3.70393 3.43613 3.95593 3.41685 4.22721C3.39895 4.48471 3.47469 5.27376 3.47469 5.27376L2.75725 6.08759C2.75725 6.08759 1.60742 5.45415 1.5551 5.34399C1.50277 5.23382 1.72309 3.67088 1.53582 3.48911C1.30861 3.27016 0.410775 2.69456 0.33366 3.06223C0.256546 3.4299 0.993263 3.76039 0.993263 3.76039C0.993263 3.76039 0.793592 5.43349 0.89687 5.67998C1.00015 5.9251 2.68014 7.01709 2.68014 7.01709L6.28385 6.08897Z" fill="#696E72"/>
<path d="M6.34171 5.2173L2.54107 6.61225C2.54107 6.61225 1.82363 8.37624 2.65674 11.0711C3.40172 13.4782 6.25771 15.9307 9.82975 14.8896C13.5326 13.81 13.5519 8.04575 12.3883 6.16609C11.2715 4.35941 9.75264 3.82098 9.75264 3.82098L6.34171 5.2173Z" fill="#FE1D1E"/>
<path d="M7.13733 2.96166C7.15562 2.75714 6.95984 2.5725 6.70002 2.54926C6.44021 2.52602 6.21475 2.67297 6.19646 2.87749C6.17816 3.08201 6.37395 3.26664 6.63377 3.28989C6.89358 3.31313 7.11903 3.16618 7.13733 2.96166Z" fill="#2F2F2F"/>
<path d="M4.31627 4.08377C4.52631 3.92908 4.59787 3.66964 4.47611 3.5043C4.35434 3.33896 4.08535 3.33033 3.87531 3.48502C3.66527 3.63971 3.59371 3.89914 3.71547 4.06448C3.83724 4.22982 4.10622 4.23845 4.31627 4.08377Z" fill="#2F2F2F"/>
<path d="M6.67078 6.66456C6.67078 6.66456 8.17037 10.355 8.31221 10.775C8.45267 11.1895 9.55981 14.4655 9.61764 14.639C9.67548 14.8125 9.70853 14.9488 9.90131 14.8841C10.1148 14.8125 10.0239 14.6197 9.96604 14.4641C9.9082 14.3085 8.96906 11.0573 8.8286 10.6263C8.52427 9.69542 7.29045 6.30377 7.29045 6.30377L6.67078 6.66456Z" fill="#D62F34"/>
<path d="M5.75924 3.64607C4.61492 4.0344 3.95669 4.88679 3.80109 5.17734C3.64548 5.4679 3.18142 5.39079 3.18142 5.39079C3.18142 5.39079 2.89086 5.63039 2.70359 5.9719C2.55762 6.23767 2.52319 6.6315 2.52319 6.6315C2.52319 6.6315 4.03518 6.47039 4.84902 6.5475C5.66285 6.62461 7.117 6.8835 7.117 6.8835C7.117 6.8835 7.93772 5.70751 8.5326 5.10023C8.90716 4.71741 9.90276 3.87191 9.90276 3.87191C9.90276 3.87191 9.50892 3.58135 9.21837 3.52352C8.9884 3.47808 8.48854 3.41335 8.24893 3.54968C8.22827 3.54968 6.94487 3.24536 5.75924 3.64607Z" fill="#2F2F2F"/>
<path d="M3.94428 5.64277C4.24998 5.32743 3.85339 4.71189 3.54356 4.72566C3.23372 4.73805 3.24612 4.94599 3.169 5.12638C3.09189 5.30677 2.96107 5.37976 2.98861 5.57805C3.0134 5.77221 3.47884 6.12198 3.94428 5.64277Z" fill="#FFEBC1"/>
<path d="M7.66637 4.00139C8.20893 4.33739 8.58348 3.821 8.60965 3.56212C8.63581 3.30323 8.20893 3.26467 8.07949 3.18756C7.95004 3.11045 7.74349 2.8254 7.54933 3.12284C7.35654 3.42028 7.35792 3.81136 7.66637 4.00139Z" fill="#FFEBC1"/>
<path d="M6.01257 10.6924C6.74114 10.6924 7.33177 10.1178 7.33177 9.40898C7.33177 8.70018 6.74114 8.12558 6.01257 8.12558C5.28399 8.12558 4.69336 8.70018 4.69336 9.40898C4.69336 10.1178 5.28399 10.6924 6.01257 10.6924Z" fill="#2F2F2F"/>
<path d="M9.63973 9.52738C10.2999 9.52738 10.835 8.98792 10.835 8.32246C10.835 7.65701 10.2999 7.11755 9.63973 7.11755C8.9796 7.11755 8.44446 7.65701 8.44446 8.32246C8.44446 8.98792 8.9796 9.52738 9.63973 9.52738Z" fill="#2F2F2F"/>
<path d="M11.5453 7.15274C11.9378 6.88466 12.0129 6.31146 11.7131 5.87246C11.4133 5.43346 10.852 5.29491 10.4595 5.56299C10.067 5.83108 9.99183 6.40428 10.2917 6.84328C10.5915 7.28227 11.1527 7.42083 11.5453 7.15274Z" fill="#2F2F2F"/>
<path d="M3.36455 9.64583C3.85052 9.64583 4.24448 9.20255 4.24448 8.65574C4.24448 8.10893 3.85052 7.66565 3.36455 7.66565C2.87858 7.66565 2.48462 8.10893 2.48462 8.65574C2.48462 9.20255 2.87858 9.64583 3.36455 9.64583Z" fill="#2F2F2F"/>
<path d="M6.77595 13.469C7.37451 13.4088 7.80828 12.8489 7.7448 12.2186C7.68133 11.5882 7.14464 11.1261 6.54607 11.1864C5.94751 11.2466 5.51374 11.8065 5.57722 12.4368C5.6407 13.0672 6.17738 13.5293 6.77595 13.469Z" fill="#2F2F2F"/>
<path d="M11.7218 10.9755C11.7474 10.3661 11.305 9.85267 10.7336 9.82865C10.1622 9.80463 9.6782 10.2792 9.65259 10.8886C9.62697 11.4979 10.0694 12.0114 10.6408 12.0354C11.2122 12.0595 11.6962 11.5849 11.7218 10.9755Z" fill="#2F2F2F"/>
</svg>
