<svg width="17" height="16" viewBox="0 0 17 16" fill="none" xmlns="http://www.w3.org/2000/svg">
<path d="M1.37149 12.3246C0.0700066 13.6261 0 15.9984 0 15.9984C0 15.9984 2.37068 15.9284 3.67376 14.6269C4.97684 13.3254 5.51621 11.755 4.87978 11.1202C4.24336 10.4838 2.67298 11.0232 1.37149 12.3246Z" fill="url(#paint0_linear_9_444)"/>
<path opacity="0.2" d="M4.13676 11.1711C4.36428 11.1711 4.5377 11.23 4.65385 11.3446C5.09139 11.7821 4.70318 13.1457 3.44783 14.4026C2.54092 15.3095 1.03101 15.5768 0.346851 15.6532C0.423222 14.969 0.69052 13.4591 1.59583 12.5522C2.43432 11.7121 3.43192 11.1711 4.13676 11.1711ZM4.13676 10.8529C3.37146 10.8529 2.30226 11.3939 1.37149 12.3263C0.0700066 13.6277 0 16 0 16C0 16 2.37068 15.93 3.67376 14.6285C4.97684 13.327 5.51621 11.7567 4.87978 11.1218C4.6984 10.9373 4.44224 10.8529 4.13676 10.8529Z" fill="#424242"/>
<path d="M1.76605 12.7829C0.946649 13.6023 0.9021 15.0947 0.9021 15.0947C0.9021 15.0947 2.39451 15.0501 3.21391 14.2307C4.03331 13.4113 4.37379 12.4217 3.97285 12.0223C3.5719 11.623 2.58703 11.9619 1.76605 12.7829Z" fill="url(#paint1_linear_9_444)"/>
<path d="M3.44629 12.7972C4.22591 13.6293 5.24897 13.5418 5.33329 13.405L6.04609 12.2467C6.08905 12.1767 6.04927 12.0653 6.01904 12.0367L4.09545 10.1131C4.06522 10.0829 3.95862 10.0478 3.88861 10.0908L2.73032 10.8036C2.59508 10.8879 2.44234 11.7232 3.44629 12.7972Z" fill="#546E7A"/>
<path d="M8.68404 14.9133C8.52493 15.0421 8.31173 15.0135 8.28468 14.8226C8.2099 14.2943 8.25923 13.2331 7.59416 12.568C6.94501 11.9189 5.89014 11.8234 5.89014 11.8234L9.86142 9.86642C9.86142 9.86642 10.6092 11.0199 10.1971 12.6619C9.85347 14.0191 9.26637 14.4375 8.68404 14.9133Z" fill="#0288D1"/>
<path opacity="0.2" d="M9.63709 10.5076C9.66573 10.5856 9.69596 10.6747 9.72301 10.7733C9.8312 11.1679 9.92189 11.7964 9.73255 12.5442C9.4923 13.502 9.13272 13.9125 8.71109 14.2721C8.657 13.6643 8.53926 12.8369 7.92988 12.2291C7.70713 12.0064 7.4462 11.8377 7.19004 11.7121L9.63709 10.5076ZM9.85984 9.86642L5.88855 11.8234C5.88855 11.8234 6.94501 11.9205 7.59258 12.568C8.25764 13.2331 8.20832 14.2943 8.2831 14.8226C8.29901 14.9355 8.38174 14.9928 8.4788 14.9928C8.54562 14.9928 8.61881 14.9658 8.68245 14.9133C9.26478 14.4375 9.85188 14.0191 10.194 12.6619C10.6092 11.0184 9.85984 9.86642 9.85984 9.86642Z" fill="#424242"/>
<path d="M1.13291 7.58963C0.976985 7.72328 1.03267 7.96194 1.2236 7.98899C1.75183 8.06377 2.81307 8.01445 3.47813 8.67951C4.12729 9.32866 4.26253 10.2483 4.26253 10.2483L6.18134 6.18632C6.18134 6.18632 5.16625 5.71059 3.68974 6.09404C2.67146 6.35974 1.66114 7.13459 1.13291 7.58963Z" fill="#0288D1"/>
<path opacity="0.2" d="M4.83518 6.42184C5.10089 6.42184 5.33 6.45048 5.51138 6.48548L4.31809 9.01527C4.1908 8.78774 4.02692 8.55386 3.81531 8.34384C3.25048 7.77901 2.4995 7.63741 1.90763 7.57695C2.42154 7.18555 3.12002 6.73687 3.80736 6.55708C4.15102 6.46639 4.49628 6.42184 4.83518 6.42184ZM4.83518 5.94452C4.49947 5.94452 4.11284 5.9843 3.68962 6.09408C2.67134 6.35979 1.66261 7.13463 1.13437 7.58968C0.97845 7.72332 1.03414 7.96198 1.22506 7.98903C1.7533 8.06381 2.81453 8.01449 3.4796 8.67955C4.12875 9.3287 4.26399 10.2483 4.26399 10.2483L6.18122 6.18636C6.18122 6.18636 5.66571 5.94452 4.83518 5.94452Z" fill="#424242"/>
<path opacity="0.2" d="M3.9331 10.6254L5.51143 12.2037L5.01343 13.0136C4.99752 13.0152 4.98002 13.0152 4.96093 13.0152C4.80659 13.0152 4.26882 12.9754 3.79468 12.4694C3.19485 11.8282 3.10098 11.327 3.10893 11.1313L3.9331 10.6254ZM3.96652 10.0701C3.93947 10.0701 3.91242 10.0765 3.88855 10.0892L2.73026 10.802C2.59343 10.8863 2.44069 11.7216 3.44465 12.7956C3.95538 13.3413 4.57112 13.4925 4.95934 13.4925C5.16299 13.4925 5.30301 13.4511 5.33165 13.4034L6.04444 12.2451C6.0874 12.1751 6.04762 12.0637 6.01739 12.0351L4.09539 10.1131C4.0763 10.094 4.0222 10.0701 3.96652 10.0701Z" fill="#424242"/>
<path d="M11.2202 0.881714C11.8646 1.17765 12.7333 1.68679 13.5623 2.51573C13.855 2.80849 14.1048 3.10761 14.3212 3.40036C14.7397 3.96519 15.0261 4.50456 15.2138 4.92619C14.7954 6.02561 14.0062 7.30483 13.2345 8.07649C10.0826 11.2284 6.6014 13.0279 4.80032 11.7534C4.69531 11.6787 4.59189 11.6102 4.49802 11.5259C2.9531 10.1369 4.72236 6.16085 7.9363 2.94691C8.74297 2.14024 10.0874 1.31607 11.2202 0.881714Z" fill="url(#paint2_radial_9_444)"/>
<path d="M10.3817 6.86254C11.1638 6.86254 11.7978 6.22856 11.7978 5.4465C11.7978 4.66444 11.1638 4.03046 10.3817 4.03046C9.59968 4.03046 8.9657 4.66444 8.9657 5.4465C8.9657 6.22856 9.59968 6.86254 10.3817 6.86254Z" fill="#455A64"/>
<path opacity="0.2" d="M10.3817 4.34867C10.6745 4.34867 10.9513 4.46323 11.1582 4.67006C11.365 4.8769 11.4796 5.15375 11.4796 5.4465C11.4796 5.73926 11.365 6.0161 11.1582 6.22294C10.9513 6.42978 10.6745 6.54433 10.3817 6.54433C10.089 6.54433 9.81215 6.42978 9.60531 6.22294C9.17731 5.79494 9.17731 5.09806 9.60531 4.67006C9.81215 4.46323 10.0874 4.34867 10.3817 4.34867ZM10.3817 4.03046C10.019 4.03046 9.65622 4.16888 9.37938 4.44572C8.82569 4.99941 8.82569 5.89518 9.37938 6.44887C9.65622 6.72571 10.019 6.86414 10.3817 6.86414C10.7445 6.86414 11.1073 6.72571 11.3841 6.44887C11.9378 5.89518 11.9378 4.99941 11.3841 4.44572C11.1073 4.16888 10.7445 4.03046 10.3817 4.03046Z" fill="#424242"/>
<path d="M7.46043 9.57214C8.02633 9.57214 8.48508 9.1134 8.48508 8.5475C8.48508 7.98161 8.02633 7.52286 7.46043 7.52286C6.89454 7.52286 6.43579 7.98161 6.43579 8.5475C6.43579 9.1134 6.89454 9.57214 7.46043 9.57214Z" fill="#455A64"/>
<path d="M11.2202 0.881743C10.9258 2.33438 13.4906 5.1792 15.2137 4.92622C15.7499 3.54041 15.9695 2.60009 16.1159 0.98198C16.1906 0.162584 15.9504 -0.0713018 15.1914 0.0177976C13.1788 0.253275 12.3832 0.406016 11.2202 0.881743Z" fill="#E53935"/>
<path opacity="0.2" d="M15.4636 0.477623C15.5591 0.477623 15.6068 0.488761 15.6243 0.495125C15.637 0.523764 15.6689 0.635138 15.6418 0.939031C15.5002 2.50623 15.2965 3.39722 14.7699 4.75598C14.3658 5.81404 13.5957 7.04075 12.8972 7.73922C10.4613 10.1751 7.90289 11.6898 6.21954 11.6898C5.76609 11.6898 5.38106 11.58 5.07557 11.3637L5.02307 11.3271C4.94192 11.2714 4.87351 11.2221 4.81623 11.1711C4.55848 10.9388 4.42165 10.584 4.40892 10.1163C4.36437 8.41383 5.95225 5.60402 8.27201 3.28425C8.99913 2.55714 10.2815 1.75206 11.3889 1.32884L11.3984 1.32407C12.5233 0.864251 13.3061 0.719465 15.244 0.491943C15.3284 0.482397 15.4016 0.477623 15.4636 0.477623ZM15.4636 0.000305176C15.3809 0.000305176 15.2918 0.00666951 15.1915 0.0178069C13.1788 0.253284 12.3833 0.406026 11.2202 0.881753C10.0874 1.31452 8.74297 2.13869 7.9363 2.94536C4.72236 6.1593 2.9531 10.1354 4.49802 11.5244C4.5903 11.6071 4.69372 11.6771 4.80032 11.7519C5.19808 12.0335 5.67858 12.1656 6.21954 12.1656C8.12563 12.1656 10.7795 10.5315 13.2361 8.07653C14.0078 7.30486 14.797 6.02565 15.2154 4.92623C15.7516 3.54041 15.9712 2.6001 16.1175 0.98199C16.1796 0.270786 16.0077 0.000305176 15.4636 0.000305176Z" fill="#424242"/>
<path opacity="0.2" d="M7.46058 7.84107C7.64992 7.84107 7.82653 7.91426 7.96018 8.04791C8.09383 8.18156 8.16701 8.35816 8.16701 8.5475C8.16701 8.73684 8.09383 8.91344 7.96018 9.04709C7.82653 9.18074 7.64992 9.25393 7.46058 9.25393C7.27125 9.25393 7.09464 9.18074 6.96099 9.04709C6.82734 8.91344 6.75415 8.73684 6.75415 8.5475C6.75415 8.35816 6.82734 8.18156 6.96099 8.04791C7.09623 7.91426 7.27284 7.84107 7.46058 7.84107ZM7.46058 7.52286C7.19806 7.52286 6.93712 7.62309 6.73665 7.82357C6.33729 8.22292 6.33729 8.87208 6.73665 9.27143C6.93712 9.47191 7.19806 9.57214 7.46058 9.57214C7.72311 9.57214 7.98404 9.47191 8.18452 9.27143C8.58387 8.87208 8.58387 8.22292 8.18452 7.82357C7.98563 7.62309 7.72311 7.52286 7.46058 7.52286Z" fill="#424242"/>
<defs>
<linearGradient id="paint0_linear_9_444" x1="5.14454" y1="13.4253" x2="-0.00159102" y2="13.4253" gradientUnits="userSpaceOnUse">
<stop stop-color="#FF6D00"/>
<stop offset="0.2487" stop-color="#FF9B00"/>
<stop offset="0.5135" stop-color="#FFC600"/>
<stop offset="0.721" stop-color="#FFE000"/>
<stop offset="0.8439" stop-color="#FFEA00"/>
</linearGradient>
<linearGradient id="paint1_linear_9_444" x1="3.39927" y1="12.5706" x2="0.735039" y2="15.3158" gradientUnits="userSpaceOnUse">
<stop offset="0.0044475" stop-color="#C62828"/>
<stop offset="0.2711" stop-color="#D75327"/>
<stop offset="0.5983" stop-color="#E98126"/>
<stop offset="0.8504" stop-color="#F59D25"/>
<stop offset="0.9953" stop-color="#F9A825"/>
</linearGradient>
<radialGradient id="paint2_radial_9_444" cx="0" cy="0" r="1" gradientUnits="userSpaceOnUse" gradientTransform="translate(10.8845 3.11079) rotate(180) scale(5.80308)">
<stop offset="0.0112" stop-color="#F5F5F5"/>
<stop offset="0.9995" stop-color="#BDBDBD"/>
</radialGradient>
</defs>
</svg>
