<svg width="18" height="16" viewBox="0 0 18 16" fill="none" xmlns="http://www.w3.org/2000/svg">
<path d="M14.0072 5.5244C16.5959 1.08232 11.2713 -1.80062 4.50526 1.28825C0.357354 3.2004 -2.52558 9.08395 3.24029 14.1438C7.32936 17.7328 17.655 15.7029 17.655 11.5845C17.655 7.02471 11.2713 10.1724 14.0072 5.5244ZM15.4487 12.7612C14.625 13.4672 13.3306 13.4672 12.5069 12.7612C11.6832 12.0551 11.6832 11.4374 12.5069 10.7313C13.3306 10.0253 14.625 10.0253 15.4487 10.7313C16.2724 11.4374 16.2429 12.0551 15.4487 12.7612Z" fill="#F6C799"/>
<path d="M9.18261 11.8493C8.27066 11.1432 6.82919 11.1432 5.91724 11.8493C5.00529 12.5553 5.00529 13.6732 5.91724 14.3792C6.82919 15.0852 8.27066 15.0852 9.18261 14.3792C10.0651 13.6732 10.0651 12.5259 9.18261 11.8493Z" fill="#2CAECE"/>
<path d="M5.18188 8.46623C4.18167 7.99554 2.82846 8.28972 2.12243 9.14284C1.4164 9.99595 1.65175 11.055 2.65195 11.5257C3.65215 11.9964 5.00537 11.7022 5.71139 10.8491C6.41742 9.99595 6.18208 8.93691 5.18188 8.46623Z" fill="#FDF516"/>
<path d="M4.41703 4.64185C3.56391 4.17117 2.29895 4.37709 1.65176 5.11254C0.975152 5.84798 1.15166 6.81877 2.00477 7.26003C2.85789 7.73072 4.12285 7.52479 4.77004 6.78935C5.41723 6.05391 5.27014 5.11254 4.41703 4.64185Z" fill="#FF5555"/>
<path d="M7.77065 1.75891C6.94695 1.28823 5.74083 1.46473 5.09364 2.17076C4.44645 2.87679 4.56412 3.78874 5.41723 4.25942C6.24093 4.7301 7.44706 4.5536 8.09425 3.84757C8.74144 3.14155 8.59435 2.20018 7.77065 1.75891Z" fill="#83BF4F"/>
<path d="M12.5657 1.43526C11.9185 0.905746 10.8301 0.788075 10.0652 1.14109C9.32978 1.4941 9.24152 2.22954 9.88871 2.75906C10.5359 3.28858 11.6244 3.40625 12.3892 3.05324C13.1247 2.67081 13.1835 1.96478 12.5657 1.43526Z" fill="#9156B7"/>
<path d="M11.1831 10.9667C10.6242 11.5845 7.80005 12.1434 7.80005 12.1434C7.80005 12.1434 8.91792 11.1138 9.41802 9.43699C9.65337 8.64271 10.8007 8.64271 11.3008 9.08398C11.8009 9.49583 11.742 10.3489 11.1831 10.9667Z" fill="#947151"/>
<path d="M16.6842 2.20025C16.9784 2.17083 17.5374 2.67093 17.5668 2.93569C17.655 4.20065 12.3598 8.73099 12.3598 8.73099L11.4773 7.99554C11.4773 7.99554 15.3899 2.2885 16.6842 2.20025Z" fill="#666666"/>
<path d="M10.7124 8.8486L11.5949 9.58404L12.3598 8.73093L11.4773 7.99548L10.7124 8.8486Z" fill="#CCCCCC"/>
</svg>
