<svg width="17" height="16" viewBox="0 0 17 16" fill="none" xmlns="http://www.w3.org/2000/svg">
<path d="M14.7529 6.19932C14.7529 6.19932 16.1212 4.59179 15.5881 4.31703C14.7365 3.87688 13.5295 3.80716 12.3184 4.21315C11.6048 4.45236 10.9883 4.8228 10.5099 5.26706C10.7436 4.68474 10.8776 4.004 10.8776 3.27542C10.8776 1.93718 10.4251 0.757507 9.73894 0.0617318C9.32749 -0.356554 8.29681 1.49839 8.29681 1.49839C8.29681 1.49839 7.2388 -0.344251 6.81914 0.0959055C6.15208 0.795782 5.71602 1.95905 5.71602 3.27542C5.71602 4.03271 5.86092 4.73942 6.11107 5.33404C5.62307 4.85014 4.96967 4.44143 4.20828 4.18581C2.97666 3.77162 1.75051 3.85091 0.897534 4.31157C0.38493 4.58632 1.77375 6.17198 1.77375 6.17198C1.77375 6.17198 -0.247966 6.64221 0.0254228 7.18899C0.46558 8.06247 1.3992 8.84983 2.61305 9.25718C3.36351 9.5087 4.10712 9.57704 4.76873 9.48956C4.20008 9.82036 3.65466 10.3179 3.20631 10.9577C2.44355 12.0389 2.13735 13.2692 2.29729 14.2479C2.39434 14.8343 4.28346 13.9622 4.28346 13.9622C4.28346 13.9622 4.09072 16.0946 4.67987 15.9921C5.6176 15.8322 6.63324 15.1583 7.38233 14.0934C7.82932 13.4578 8.12048 12.773 8.25034 12.1155C8.3802 12.7702 8.66999 13.4551 9.11561 14.0893C9.87837 15.1706 10.9131 15.8527 11.8659 15.9976C12.4359 16.0851 12.2145 13.9622 12.2145 13.9622C12.2145 13.9622 14.1173 14.807 14.2089 14.1987C14.3497 13.2282 14.0407 12.0225 13.293 10.9549C12.8597 10.3398 12.3389 9.85317 11.7921 9.52237C12.4455 9.60302 13.1768 9.5333 13.9122 9.28588C15.1438 8.8717 16.0898 8.06247 16.5176 7.17532C16.7787 6.63811 14.7529 6.19932 14.7529 6.19932Z" fill="url(#paint0_radial_9_424)"/>
<path d="M10.7109 7.88182C10.6562 7.89959 10.6015 7.90506 10.5482 7.90233C10.4402 7.89549 10.3377 7.84355 10.2666 7.76017L9.4437 8.03492L9.23183 8.10737C9.23729 8.14974 9.24139 8.19349 9.24139 8.23723C9.24139 8.50378 9.13887 8.74437 8.97484 8.92344L9.06916 9.05876L9.61594 9.83246C9.72256 9.81058 9.83192 9.83109 9.9235 9.8885C9.96998 9.91721 10.0096 9.95548 10.0438 10.0033C10.1819 10.2002 10.1395 10.4749 9.95084 10.6171C9.75947 10.762 9.49428 10.7169 9.35622 10.52C9.32204 10.4722 9.30017 10.4202 9.28787 10.3669C9.2619 10.2576 9.27694 10.1428 9.33025 10.0457L8.78757 9.27474L8.69052 9.13805C8.56476 9.20229 8.42396 9.23647 8.27496 9.23647C8.12597 9.23647 7.98517 9.20229 7.85941 9.13805L7.77603 9.25424L7.21968 10.0443C7.27299 10.1414 7.28803 10.2562 7.26069 10.3656C7.24975 10.4189 7.22652 10.4708 7.19371 10.5187C7.05565 10.7155 6.79046 10.7592 6.59909 10.6157C6.41045 10.4736 6.36807 10.1988 6.50477 10.002C6.53894 9.95411 6.57858 9.91584 6.62506 9.88713C6.71665 9.82835 6.82874 9.80922 6.93399 9.83109L7.4876 9.04236L7.57235 8.92207C7.40832 8.743 7.3058 8.50242 7.3058 8.23586C7.3058 8.19212 7.3099 8.14838 7.314 8.106L7.14723 8.04996L6.27922 7.75743C6.20814 7.84082 6.10562 7.89276 5.99763 7.89959C5.94432 7.90369 5.88964 7.89823 5.83497 7.87909C5.61215 7.80391 5.48776 7.55649 5.56021 7.32548C5.63266 7.0931 5.87324 6.96734 6.09742 7.04252C6.1521 7.06029 6.19994 7.09036 6.24095 7.12454C6.32297 7.19698 6.37491 7.2995 6.38721 7.40886L7.24975 7.69865L7.42062 7.75743C7.55732 7.49634 7.802 7.30634 8.09453 7.25166V6.12803C7.99611 6.08292 7.91819 5.99817 7.87718 5.89428C7.85531 5.84371 7.84574 5.7863 7.84574 5.72752C7.84574 5.4842 8.03712 5.28873 8.27223 5.28873C8.50734 5.28873 8.69872 5.4842 8.69872 5.72752C8.69872 5.7863 8.68778 5.84234 8.66728 5.89428C8.62627 5.99817 8.54835 6.08292 8.44993 6.12803V7.25166C8.74109 7.30634 8.98714 7.49634 9.12384 7.75743L9.35075 7.68088L10.1586 7.40886C10.1709 7.2995 10.2242 7.19698 10.3049 7.12454C10.3459 7.09036 10.3937 7.06029 10.4484 7.04252C10.6726 6.96734 10.9118 7.0931 10.9843 7.32548C11.0567 7.55922 10.9323 7.80664 10.7109 7.88182Z" fill="white"/>
<path opacity="0.2" d="M9.55167 0.462028C10.1272 1.11953 10.4675 2.15704 10.4675 3.2752C10.4675 3.92587 10.35 4.5615 10.1285 5.11374C10.0574 5.29145 10.119 5.49512 10.2775 5.60448C10.3472 5.65232 10.4292 5.67693 10.5099 5.67693C10.6111 5.67693 10.7108 5.64002 10.7888 5.56757C11.2398 5.14792 11.814 4.81438 12.4482 4.60251C12.9376 4.43847 13.4297 4.35509 13.9136 4.35509C14.4221 4.35509 14.8937 4.44941 15.2874 4.62711C15.2122 4.8841 14.8445 5.45822 14.4412 5.93391C14.3483 6.04327 14.3196 6.195 14.3647 6.33033C14.4112 6.46702 14.5246 6.56954 14.6668 6.59962C15.2573 6.72811 15.8793 6.95365 16.0925 7.10949C15.6715 7.88591 14.8185 8.54888 13.7837 8.89608C13.2957 9.06012 12.8036 9.1435 12.3225 9.1435C12.1612 9.1435 11.9999 9.13393 11.8454 9.1148C11.829 9.11206 11.8112 9.11206 11.7948 9.11206C11.6226 9.11206 11.4654 9.22142 11.408 9.38818C11.3451 9.57136 11.4176 9.77366 11.583 9.87345C12.0942 10.1837 12.5713 10.6389 12.9595 11.1898C13.5883 12.0879 13.9054 13.1309 13.8206 14.0085C13.4598 14.0057 12.749 13.7487 12.3826 13.5874C12.3293 13.5642 12.2733 13.5519 12.2158 13.5519C12.1311 13.5519 12.0463 13.5779 11.9753 13.6298C11.8563 13.7159 11.7935 13.8581 11.8085 14.0044C11.8727 14.6195 11.8577 15.2948 11.7825 15.5654C10.9487 15.3863 10.0875 14.7562 9.45188 13.854C9.05273 13.2881 8.77661 12.6593 8.65359 12.036C8.61531 11.8446 8.44718 11.7052 8.2517 11.7052C8.05623 11.7052 7.8881 11.8432 7.84982 12.036C7.7268 12.6566 7.44931 13.2867 7.04879 13.8581C6.4241 14.7452 5.57249 15.3727 4.74685 15.5627C4.66347 15.2989 4.63613 14.6209 4.69218 14.0016C4.70585 13.8554 4.63887 13.7146 4.51994 13.6298C4.45023 13.5806 4.36684 13.5546 4.28346 13.5546C4.22468 13.5546 4.1659 13.5669 4.11122 13.5929C3.74352 13.7624 3.04364 14.029 2.68277 14.044C2.58708 13.1569 2.90148 12.1057 3.54257 11.1967C3.94172 10.628 4.43656 10.1605 4.97513 9.84748C5.14464 9.74906 5.21982 9.54538 5.15694 9.36085C5.09953 9.19271 4.94233 9.08336 4.76873 9.08336C4.75096 9.08336 4.73318 9.08472 4.71405 9.08746C4.55001 9.10933 4.37915 9.12026 4.20691 9.12026C3.72438 9.12026 3.23228 9.03688 2.74291 8.87285C1.72454 8.53111 0.875663 7.87771 0.447809 7.11495C0.652851 6.95502 1.27481 6.71581 1.8667 6.57774C2.00749 6.54494 2.11958 6.44105 2.16469 6.30435C2.20844 6.16766 2.17836 6.0173 2.08268 5.90794C1.67396 5.44181 1.29668 4.87726 1.21193 4.61754C1.60971 4.43027 2.09088 4.33185 2.61032 4.33185C3.09422 4.33185 3.58768 4.41524 4.07705 4.58064C4.75642 4.80892 5.35925 5.17252 5.82127 5.63045C5.90056 5.70973 6.00444 5.74937 6.11107 5.74937C6.19035 5.74937 6.271 5.72614 6.34071 5.67966C6.50338 5.5703 6.56489 5.36116 6.48971 5.18073C6.25186 4.61618 6.12747 3.95868 6.12747 3.28067C6.12747 2.17754 6.45964 1.14687 7.02282 0.489367C7.2388 0.657501 7.64068 1.18378 7.94277 1.70732C8.01659 1.83444 8.15192 1.91236 8.29818 1.91236H8.30091C8.44854 1.91099 8.58387 1.83034 8.65632 1.70185C8.94748 1.17147 9.33706 0.641098 9.55167 0.462028ZM9.59678 0C9.12928 0 8.29681 1.49817 8.29681 1.49817C8.29681 1.49817 7.45341 0.0273389 6.97361 0.0273389C6.9162 0.0273389 6.86425 0.0478431 6.81914 0.0956862C6.15207 0.795563 5.71602 1.95883 5.71602 3.2752C5.71602 4.03249 5.86092 4.7392 6.11107 5.33382C5.62307 4.84992 4.96967 4.44121 4.20828 4.18559C3.66423 4.00242 3.12156 3.9163 2.61032 3.9163C1.96512 3.9163 1.37323 4.05436 0.897534 4.31135C0.38493 4.5861 1.77375 6.17176 1.77375 6.17176C1.77375 6.17176 -0.247966 6.64199 0.0254228 7.18877C0.465579 8.06225 1.3992 8.84961 2.61305 9.25696C3.1571 9.44013 3.69841 9.52625 4.20691 9.52625C4.39965 9.52625 4.58692 9.51394 4.76736 9.48934C4.19871 9.82014 3.6533 10.3177 3.20494 10.9574C2.44218 12.0387 2.13599 13.2689 2.29592 14.2477C2.32053 14.3953 2.45859 14.45 2.65133 14.45C3.22408 14.45 4.28209 13.9606 4.28209 13.9606C4.28209 13.9606 4.09892 15.9933 4.63887 15.9933C4.65117 15.9933 4.66484 15.9919 4.67851 15.9892C5.61623 15.8292 6.63187 15.1553 7.38096 14.0905C7.82795 13.4548 8.11911 12.77 8.24897 12.1125C8.37883 12.7673 8.66862 13.4521 9.11425 14.0864C9.877 15.1676 10.9118 15.8497 11.8645 15.9946C11.8755 15.996 11.8878 15.9974 11.8987 15.9974C12.4264 15.9974 12.2145 13.9593 12.2145 13.9593C12.2145 13.9593 13.2438 14.4158 13.8247 14.4158C14.0339 14.4158 14.1842 14.357 14.2089 14.1957C14.3496 13.2252 14.0407 12.0196 13.293 10.952C12.8597 10.3368 12.3389 9.85021 11.7921 9.51941C11.963 9.54128 12.1393 9.55085 12.3197 9.55085C12.8282 9.55085 13.3695 9.46473 13.9122 9.28156C15.1438 8.86738 16.0898 8.05815 16.5176 7.171C16.776 6.63516 14.7515 6.19637 14.7515 6.19637C14.7515 6.19637 16.1198 4.58884 15.5867 4.31408C15.1179 4.07213 14.5397 3.94091 13.9122 3.94091C13.4024 3.94091 12.8597 4.02702 12.317 4.20883C11.6035 4.44804 10.987 4.81848 10.5085 5.26274C10.7423 4.68042 10.8762 3.99968 10.8762 3.2711C10.8762 1.93286 10.4238 0.753187 9.73757 0.0574117C9.69793 0.0191372 9.65009 0 9.59678 0Z" fill="#424242"/>
<defs>
<radialGradient id="paint0_radial_9_424" cx="0" cy="0" r="1" gradientUnits="userSpaceOnUse" gradientTransform="translate(8.27112 7.99917) scale(8.01331 8.27454)">
<stop offset="0.1491" stop-color="#FCE4EC"/>
<stop offset="0.3509" stop-color="#FACFDE"/>
<stop offset="0.7646" stop-color="#F59AB9"/>
<stop offset="1" stop-color="#F279A2"/>
</radialGradient>
</defs>
</svg>
