<svg width="16" height="16" viewBox="0 0 16 16" fill="none" xmlns="http://www.w3.org/2000/svg">
<path d="M6.47733 6.59069C5.88213 6.16931 4.97748 5.2844 4.298 4.25597C3.75152 3.43032 3.19187 2.26494 3.62906 1.40901C3.81209 1.05084 4.06097 0.975777 4.23743 0.975777C4.42705 0.975777 4.62984 1.06005 4.85106 1.23256C4.8616 0.948124 4.93007 0.7348 5.05649 0.58995C5.175 0.454317 5.34092 0.383209 5.53976 0.383209C5.61218 0.383209 5.68988 0.392427 5.77284 0.412179C6.71041 0.62682 7.2424 1.80537 7.5242 2.75611C7.87448 3.93862 7.9706 5.20013 7.91003 5.92701L7.89686 6.08503L7.74016 6.10741C7.3596 6.16009 7.00801 6.32337 6.72358 6.57884L6.60638 6.68418L6.47733 6.59069Z" fill="url(#paint0_radial_9_434)"/>
<path d="M5.53843 0.580714C5.59505 0.580714 5.65826 0.588615 5.72673 0.604417C7.2358 0.95074 7.83891 4.37447 7.71118 5.90987C7.29506 5.96781 6.90397 6.14954 6.59056 6.43002C5.333 5.53985 3.09968 2.87856 3.80418 1.49985C3.92006 1.27468 4.06754 1.1746 4.23609 1.1746C4.48102 1.1746 4.77336 1.38397 5.07754 1.72108C4.98405 1.04818 5.09071 0.580714 5.53843 0.580714ZM5.53843 0.185669C5.28165 0.185669 5.06306 0.28048 4.90635 0.460884C4.80628 0.576764 4.73517 0.721614 4.69435 0.899384C4.53765 0.819058 4.3849 0.779554 4.23609 0.779554C4.04647 0.779554 3.69225 0.849345 3.45259 1.31945C3.07203 2.06477 3.30774 3.1169 4.13207 4.36525C4.82603 5.41343 5.75175 6.31941 6.36276 6.75132L6.61953 6.93304L6.85393 6.72235C7.10939 6.49323 7.42543 6.34706 7.76648 6.29965L8.07988 6.2562L8.10622 5.94148C8.16811 5.19616 8.07067 3.90436 7.71249 2.69816C7.28716 1.26283 6.63139 0.405577 5.81628 0.218589C5.71883 0.196203 5.62534 0.185669 5.53843 0.185669Z" fill="#BDBDBD"/>
<path d="M4.74043 8.16823C3.2814 8.16823 0.693854 7.80216 0.250086 6.43267C0.164493 6.16667 0.185562 5.94281 0.311977 5.76899C0.441025 5.59254 0.663567 5.48456 0.988821 5.44505C0.771546 5.21066 0.668834 4.99075 0.678052 4.77611C0.68727 4.55357 0.816318 4.36394 1.05861 4.21119C1.29564 4.06239 1.58271 3.98734 1.91323 3.98734C3.47366 3.98734 5.67537 5.66101 6.46941 6.59858L6.57213 6.71973L6.476 6.84615C6.36144 6.99626 6.27058 7.16482 6.20473 7.34654C6.14021 7.52431 6.10202 7.70998 6.0928 7.89828L6.0849 8.0563L5.92952 8.08264C5.59636 8.13794 5.18552 8.16823 4.74043 8.16823Z" fill="url(#paint1_radial_9_434)"/>
<path d="M1.91321 4.18484C3.35513 4.18484 5.48442 5.74264 6.31797 6.7263C6.19419 6.88958 6.09147 7.07525 6.01773 7.27804C5.94399 7.47952 5.90449 7.68362 5.89395 7.88641C5.57791 7.9404 5.17892 7.97069 4.7391 7.97069C3.06543 7.97069 0.814986 7.53877 0.437059 6.37207C0.261923 5.82954 0.653017 5.62412 1.31143 5.62412C1.37068 5.62412 1.43126 5.62544 1.49446 5.62939C0.882144 5.16587 0.635899 4.71025 1.16263 4.37973C1.37858 4.2441 1.63273 4.18484 1.91321 4.18484ZM1.91321 3.78979C1.5445 3.78979 1.22188 3.87539 0.953252 4.04262C0.577959 4.27833 0.488415 4.5654 0.480514 4.76556C0.472613 4.94859 0.525286 5.13032 0.641166 5.31599C0.425208 5.38578 0.263239 5.49771 0.15131 5.65046C0.0367468 5.80848 -0.0712322 6.08106 0.0604495 6.4919C0.508168 7.87456 2.86 8.36442 4.73779 8.36442C5.19472 8.36442 5.61742 8.33413 5.95848 8.27488L6.26924 8.2222L6.28636 7.90617C6.29558 7.73761 6.32982 7.57169 6.38776 7.41104C6.44701 7.24776 6.52866 7.09764 6.63137 6.96332L6.82362 6.7105L6.6182 6.4682C5.69116 5.37393 3.48154 3.78979 1.91321 3.78979Z" fill="#BDBDBD"/>
<path d="M9.15606 6.4748C9.00462 6.36024 8.83607 6.26806 8.65567 6.20354C8.47789 6.13902 8.29222 6.10083 8.10392 6.09029L7.9459 6.08239L7.91956 5.92701C7.7971 5.20803 7.78261 3.94125 8.02886 2.73504C8.22638 1.76455 8.65435 0.545176 9.56954 0.250208C9.67488 0.215971 9.77628 0.198853 9.86845 0.198853C10.0462 0.198853 10.2003 0.263377 10.3175 0.385841C10.4452 0.520156 10.5255 0.720312 10.5585 0.99026C10.7823 0.782203 10.9956 0.679491 11.2011 0.679491C11.3617 0.679491 11.5935 0.745332 11.791 1.06005C12.3019 1.87516 11.845 3.084 11.3723 3.95573C10.785 5.03947 9.95931 5.99943 9.40362 6.47085L9.28247 6.57357L9.15606 6.4748Z" fill="url(#paint2_radial_9_434)"/>
<path d="M9.86714 0.395045C10.2727 0.395045 10.4057 0.841446 10.3728 1.49459C10.6599 1.11403 10.9456 0.874367 11.1998 0.874367C11.3538 0.874367 11.4974 0.962593 11.6225 1.16275C12.4441 2.47562 10.4505 5.32126 9.27457 6.31809C9.11128 6.19431 8.92561 6.0916 8.72282 6.01786C8.52135 5.94411 8.31724 5.90461 8.11314 5.89407C7.85372 4.37447 8.15527 0.913871 9.62879 0.4385C9.71702 0.408213 9.79603 0.395045 9.86714 0.395045ZM9.86714 0C9.75389 0 9.63274 0.0210691 9.50765 0.0618904C8.71229 0.31867 8.13289 1.22991 7.83529 2.69553C7.58378 3.92675 7.59958 5.2225 7.72468 5.95992L7.77735 6.27068L8.09207 6.2878C8.26194 6.29702 8.42786 6.33126 8.58719 6.3892C8.74916 6.44845 8.90059 6.5301 9.03623 6.63281L9.28905 6.82375L9.53003 6.61964C10.1002 6.13637 10.9443 5.15402 11.5448 4.0479C12.2585 2.7324 12.4007 1.66182 11.9569 0.953376C11.712 0.562281 11.4091 0.479322 11.1998 0.479322C11.0286 0.479322 10.8574 0.533311 10.6836 0.64129C10.6322 0.481955 10.5571 0.350273 10.4597 0.247562C10.3043 0.0855931 10.1002 0 9.86714 0Z" fill="#BDBDBD"/>
<path d="M10.527 7.92473C10.365 7.92473 10.2122 7.91947 10.074 7.90762L9.91595 7.89445L9.89356 7.73775C9.84089 7.3585 9.67761 7.00691 9.42214 6.72116L9.31812 6.60397L9.40898 6.47492C10.1727 5.39644 12.3244 3.46994 13.8967 3.46994C14.1535 3.46994 14.3865 3.52261 14.5893 3.62532C14.8448 3.75569 14.9883 3.93346 15.0173 4.15469C15.045 4.36669 14.962 4.59582 14.7658 4.84733C15.1029 4.8605 15.3439 4.95531 15.4848 5.13045C15.6138 5.29242 15.6481 5.50574 15.5888 5.76779C15.2188 7.38221 11.957 7.92473 10.527 7.92473Z" fill="url(#paint3_radial_9_434)"/>
<path d="M13.8967 3.66879C14.1153 3.66879 14.3181 3.71093 14.4998 3.8031C15.0542 4.08622 14.8488 4.56159 14.2786 5.07647C14.4261 5.0554 14.563 5.04486 14.6868 5.04486C15.2069 5.04486 15.5085 5.2358 15.3952 5.72566C15.0779 7.10568 12.1914 7.72722 10.5257 7.72722C10.369 7.72722 10.2215 7.72195 10.0898 7.7101C10.0319 7.29399 9.85013 6.90289 9.56965 6.58949C10.3439 5.49653 12.4522 3.66879 13.8967 3.66879ZM13.8967 3.27374C12.256 3.27374 10.0319 5.25292 9.24703 6.36168L9.06531 6.61846L9.276 6.85285C9.50512 7.10831 9.65129 7.42435 9.6987 7.76409L9.74215 8.07749L10.0569 8.10383C10.2004 8.11568 10.3571 8.12226 10.5257 8.12226C12.0677 8.12226 15.3794 7.55867 15.7811 5.81388C15.8733 5.41225 15.7547 5.15416 15.6389 5.00931C15.5151 4.85261 15.3347 4.74726 15.1003 4.69327C15.199 4.49838 15.2372 4.31139 15.2122 4.12967C15.1859 3.93083 15.0726 3.65167 14.6776 3.4502C14.4485 3.333 14.1864 3.27374 13.8967 3.27374Z" fill="#BDBDBD"/>
<path d="M6.13509 15.8022C5.95732 15.8022 5.80325 15.7377 5.68605 15.6152C5.55832 15.4809 5.47799 15.2807 5.44507 15.0121C5.22121 15.2202 5.00789 15.3229 4.80247 15.3229C4.64181 15.3229 4.41005 15.257 4.21253 14.9423C3.70161 14.1272 4.15854 12.9184 4.63128 12.0466C5.21858 10.9629 6.04423 10.0029 6.59992 9.53152L6.72107 9.4288L6.84748 9.52361C6.99892 9.63818 7.16747 9.73035 7.34787 9.79619C7.52433 9.86072 7.71 9.89891 7.89962 9.90944L8.05764 9.91866L8.08397 10.074C8.20644 10.793 8.22092 12.0598 7.97468 13.266C7.77716 14.2365 7.34919 15.4559 6.434 15.7522C6.32734 15.7838 6.22726 15.8022 6.13509 15.8022Z" fill="url(#paint4_radial_9_434)"/>
<path d="M6.72768 9.68165C6.89097 9.80543 7.07664 9.90815 7.27943 9.98189C7.4809 10.0556 7.68501 10.0951 7.8878 10.1057C8.14721 11.6253 7.84566 15.0859 6.37214 15.5612C6.28391 15.5902 6.2049 15.6034 6.1338 15.6034C5.72822 15.6034 5.59522 15.157 5.62814 14.5038C5.34107 14.8844 5.05532 15.1241 4.80118 15.1241C4.64711 15.1241 4.50358 15.0358 4.37848 14.8357C3.55678 13.5241 5.55176 10.6772 6.72768 9.68165ZM6.71319 9.17599L6.47222 9.3801C5.90203 9.86337 5.05796 10.8457 4.45749 11.9518C3.74377 13.2673 3.60155 14.3379 4.04532 15.0464C4.29025 15.4375 4.59312 15.5204 4.80249 15.5204C4.97368 15.5204 5.14487 15.4664 5.31869 15.3585C5.37004 15.5178 5.4451 15.6482 5.54254 15.7522C5.69661 15.9141 5.90203 15.9997 6.1338 15.9997C6.24704 15.9997 6.36819 15.9787 6.49329 15.9379C7.28864 15.6811 7.86673 14.7698 8.16564 13.3042C8.41716 12.073 8.40267 10.7772 8.27626 10.0398L8.22358 9.72906L7.90886 9.71194C7.739 9.70272 7.57308 9.66848 7.41374 9.61055C7.25177 9.55129 7.10034 9.46965 6.96471 9.36693L6.71319 9.17599Z" fill="#BDBDBD"/>
<path d="M14.089 12.011C12.5285 12.011 10.3268 10.3374 9.53277 9.39979L9.43005 9.27864L9.52486 9.15223C9.64074 8.99948 9.73161 8.83224 9.79745 8.65184C9.86197 8.47407 9.90016 8.2884 9.91069 8.10009L9.91859 7.94207L10.074 7.91574C10.4045 7.85911 10.8153 7.82883 11.2604 7.82883C12.7195 7.82883 15.307 8.1949 15.7508 9.56439C15.8364 9.83039 15.8166 10.0542 15.6889 10.2281C15.5598 10.4045 15.3373 10.5125 15.012 10.552C15.2293 10.7864 15.332 11.0063 15.3228 11.2209C15.3136 11.4435 15.1845 11.6331 14.9423 11.7845C14.7065 11.936 14.4195 12.011 14.089 12.011Z" fill="url(#paint5_radial_9_434)"/>
<path d="M11.2616 8.02761C12.9353 8.02761 15.1871 8.45953 15.5637 9.62755C15.7401 10.1701 15.3477 10.3768 14.6893 10.3768C14.6301 10.3768 14.5695 10.3755 14.5063 10.3715C15.1186 10.8338 15.3648 11.2907 14.8381 11.6212C14.6235 11.7555 14.3693 11.8148 14.0875 11.8148C12.6456 11.8148 10.5163 10.257 9.68278 9.27332C9.80656 9.11004 9.90927 8.92437 9.98302 8.72158C10.0568 8.5201 10.0963 8.316 10.1068 8.11189C10.4228 8.0579 10.8218 8.02761 11.2616 8.02761ZM11.2616 7.63257C10.8047 7.63257 10.3833 7.66285 10.041 7.72211L9.73019 7.77478L9.71307 8.09082C9.70385 8.25937 9.66961 8.42661 9.61167 8.58594C9.55242 8.74791 9.47077 8.89803 9.36806 9.03498L9.17712 9.28781L9.38123 9.52879C10.3096 10.6244 12.5192 12.2098 14.0875 12.2098C14.4562 12.2098 14.7789 12.1242 15.0475 11.9557C15.4228 11.7213 15.511 11.4329 15.5202 11.2327C15.5281 11.0497 15.4755 10.868 15.3596 10.6823C15.5755 10.6125 15.7375 10.5006 15.8494 10.3478C15.964 10.1898 16.072 9.91725 15.939 9.5064C15.4926 8.12374 13.1394 7.63257 11.2616 7.63257Z" fill="#BDBDBD"/>
<path d="M2.10415 12.5285C1.84737 12.5285 1.61429 12.4758 1.4115 12.3731C1.15604 12.2428 1.01251 12.065 0.983536 11.8438C0.955883 11.6318 1.03884 11.4026 1.23505 11.1511C0.897943 11.138 0.655648 11.0431 0.516066 10.868C0.387018 10.706 0.35278 10.4927 0.412037 10.2307C0.78338 8.61757 4.04514 8.07504 5.4752 8.07504C5.63849 8.07504 5.78992 8.08031 5.92818 8.09216L6.0862 8.10533L6.10859 8.26203C6.16126 8.64127 6.32455 8.99286 6.58001 9.27861L6.68535 9.39581L6.59449 9.52486C5.82942 10.602 3.67774 12.5285 2.10415 12.5285Z" fill="url(#paint6_radial_9_434)"/>
<path d="M5.47529 8.27258C5.63199 8.27258 5.77948 8.27785 5.91116 8.2897C5.9691 8.70581 6.15082 9.09691 6.4313 9.41031C5.65833 10.5033 3.54879 12.331 2.10424 12.331C1.88565 12.331 1.68286 12.2889 1.50114 12.1967C0.948072 11.9136 1.15218 11.4382 1.72368 10.9233C1.57619 10.9444 1.43924 10.9549 1.31546 10.9549C0.795321 10.9549 0.49377 10.764 0.6057 10.2741C0.923053 8.89412 3.80952 8.27258 5.47529 8.27258ZM5.47529 7.87753C3.9333 7.87753 0.621501 8.44113 0.219872 10.1859C0.127695 10.5875 0.246208 10.8456 0.360772 10.9905C0.484552 11.1472 0.664956 11.2525 0.89935 11.3065C0.800589 11.5014 0.762401 11.6884 0.786104 11.8688C0.81244 12.0676 0.925686 12.3468 1.31941 12.5483C1.54986 12.6668 1.81322 12.7261 2.1016 12.7261C3.74236 12.7261 5.96646 10.7469 6.75129 9.63812L6.93301 9.38134L6.72232 9.14694C6.49319 8.89017 6.34702 8.57545 6.29962 8.23571L6.25616 7.9223L5.94144 7.89597C5.80186 7.8828 5.64384 7.87753 5.47529 7.87753Z" fill="#BDBDBD"/>
<path d="M10.4636 15.6152C10.3912 15.6152 10.3135 15.606 10.2319 15.5876C9.29429 15.3729 8.7623 14.1944 8.4805 13.2436C8.13023 12.0611 8.0341 10.7996 8.09467 10.0728L8.10784 9.91473L8.26454 9.89235C8.6451 9.83968 8.99669 9.67639 9.28113 9.42093L9.39832 9.31558L9.52737 9.40644C10.1226 9.82782 11.0272 10.7127 11.7067 11.7398C12.2532 12.5668 12.8128 13.7309 12.3756 14.5868C12.1926 14.945 11.9437 15.02 11.7673 15.02C11.5777 15.02 11.3749 14.9358 11.1536 14.7633C11.1431 15.0477 11.0746 15.2597 10.9482 15.4059C10.8284 15.5441 10.6612 15.6152 10.4636 15.6152Z" fill="url(#paint7_radial_9_434)"/>
<path d="M9.41145 9.56837C10.669 10.4585 12.9023 13.1198 12.1978 14.4985C12.082 14.725 11.9345 14.8238 11.7659 14.8238C11.521 14.8238 11.2287 14.6144 10.9245 14.2773C11.0193 14.9515 10.9126 15.419 10.4636 15.419C10.407 15.419 10.3438 15.4111 10.2753 15.3953C8.76489 15.049 8.16311 11.6239 8.28952 10.0898C8.70695 10.0306 9.09805 9.84885 9.41145 9.56837ZM9.38248 9.06403L9.14809 9.27472C8.89262 9.50384 8.57659 9.65001 8.23685 9.69741L7.92345 9.74087L7.89711 10.0556C7.83522 10.8009 7.93266 12.0927 8.29084 13.2989C8.71617 14.7342 9.37194 15.5915 10.1871 15.7798C10.2832 15.8022 10.3767 15.8127 10.4636 15.8127C10.7204 15.8127 10.939 15.7179 11.0957 15.5375C11.1957 15.4216 11.2668 15.2768 11.3077 15.099C11.4644 15.1793 11.6171 15.2188 11.7646 15.2188C11.9542 15.2188 12.3084 15.149 12.5481 14.6776C12.9287 13.9323 12.693 12.8802 11.8686 11.6318C11.1747 10.5823 10.2489 9.67766 9.63794 9.24575L9.38248 9.06403Z" fill="#BDBDBD"/>
<path d="M8.00104 10.2017C9.21701 10.2017 10.2028 9.21591 10.2028 7.99994C10.2028 6.78396 9.21701 5.79822 8.00104 5.79822C6.78506 5.79822 5.79932 6.78396 5.79932 7.99994C5.79932 9.21591 6.78506 10.2017 8.00104 10.2017Z" fill="url(#paint8_radial_9_434)" stroke="#A67C52" stroke-width="1.49327" stroke-miterlimit="10"/>
<defs>
<radialGradient id="paint0_radial_9_434" cx="0" cy="0" r="1" gradientUnits="userSpaceOnUse" gradientTransform="translate(8.40515 8.43924) scale(8.19837)">
<stop offset="0.175" stop-color="#BDBDBD"/>
<stop offset="0.5168" stop-color="#E0E0E0"/>
<stop offset="0.8526" stop-color="white"/>
</radialGradient>
<radialGradient id="paint1_radial_9_434" cx="0" cy="0" r="1" gradientUnits="userSpaceOnUse" gradientTransform="translate(8.55947 8.26857) scale(8.18284 8.18283)">
<stop offset="0.175" stop-color="#BDBDBD"/>
<stop offset="0.5168" stop-color="#E0E0E0"/>
<stop offset="0.8526" stop-color="white"/>
</radialGradient>
<radialGradient id="paint2_radial_9_434" cx="0" cy="0" r="1" gradientUnits="userSpaceOnUse" gradientTransform="translate(7.98277 8.4474) scale(8.35797 8.35797)">
<stop offset="0.175" stop-color="#BDBDBD"/>
<stop offset="0.5168" stop-color="#E0E0E0"/>
<stop offset="0.8526" stop-color="white"/>
</radialGradient>
<radialGradient id="paint3_radial_9_434" cx="0" cy="0" r="1" gradientUnits="userSpaceOnUse" gradientTransform="translate(7.80562 8.29173) scale(8.18837)">
<stop offset="0.175" stop-color="#BDBDBD"/>
<stop offset="0.5168" stop-color="#E0E0E0"/>
<stop offset="0.8526" stop-color="white"/>
</radialGradient>
<radialGradient id="paint4_radial_9_434" cx="0" cy="0" r="1" gradientUnits="userSpaceOnUse" gradientTransform="translate(8.38302 7.68586) scale(8.18165)">
<stop offset="0.175" stop-color="#BDBDBD"/>
<stop offset="0.5168" stop-color="#E0E0E0"/>
<stop offset="0.8526" stop-color="white"/>
</radialGradient>
<radialGradient id="paint5_radial_9_434" cx="0" cy="0" r="1" gradientUnits="userSpaceOnUse" gradientTransform="translate(7.79733 7.86794) scale(8.2259)">
<stop offset="0.00045042" stop-color="#C4C4C4"/>
<stop offset="0.0921" stop-color="#CCCDCF"/>
<stop offset="0.3624" stop-color="#E0E0E2"/>
<stop offset="0.7532" stop-color="#F7F7F7"/>
<stop offset="1" stop-color="white"/>
</radialGradient>
<radialGradient id="paint6_radial_9_434" cx="0" cy="0" r="1" gradientUnits="userSpaceOnUse" gradientTransform="translate(8.55089 7.84394) scale(8.3215)">
<stop offset="0.175" stop-color="#BDBDBD"/>
<stop offset="0.5168" stop-color="#E0E0E0"/>
<stop offset="0.8526" stop-color="white"/>
</radialGradient>
<radialGradient id="paint7_radial_9_434" cx="0" cy="0" r="1" gradientUnits="userSpaceOnUse" gradientTransform="translate(7.95812 7.69379) scale(8.22603)">
<stop offset="0.175" stop-color="#BDBDBD"/>
<stop offset="0.5168" stop-color="#E0E0E0"/>
<stop offset="0.8526" stop-color="white"/>
</radialGradient>
<radialGradient id="paint8_radial_9_434" cx="0" cy="0" r="1" gradientUnits="userSpaceOnUse" gradientTransform="translate(8.00104 7.99941) scale(2.20225)">
<stop offset="0.0031064" stop-color="#FF8F00"/>
<stop offset="1" stop-color="#FFB300"/>
</radialGradient>
</defs>
</svg>
