<svg width="9" height="16" viewBox="0 0 9 16" fill="none" xmlns="http://www.w3.org/2000/svg">
<path d="M7.384 16H1.14133C0.513334 16 0 15.4867 0 14.8587V1.14133C0 0.513333 0.513334 0 1.14133 0H7.38267C8.01067 0 8.524 0.513333 8.524 1.14133V14.8573C8.52533 15.4867 8.012 16 7.384 16Z" fill="url(#paint0_linear_9_432)"/>
<path opacity="0.2" d="M7.384 0.4C7.79333 0.4 8.12533 0.733333 8.12533 1.14133V14.8573C8.12533 15.2667 7.792 15.5987 7.384 15.5987H1.14133C0.732 15.5987 0.4 15.2653 0.4 14.8573V1.14133C0.4 0.732 0.733334 0.4 1.14133 0.4H7.384ZM7.384 0H1.14133C0.513334 0 0 0.513333 0 1.14133V14.8573C0 15.4853 0.513334 15.9987 1.14133 15.9987H7.38267C8.01067 15.9987 8.524 15.4853 8.524 14.8573V1.14133C8.52533 0.513333 8.012 0 7.384 0Z" fill="#EEEEEE"/>
<path d="M7.27601 13.8707H1.25201C1.15201 13.8707 1.07068 13.7893 1.07068 13.6893V2.31201C1.07068 2.21201 1.15201 2.13068 1.25201 2.13068H7.27601C7.37601 2.13068 7.45734 2.21201 7.45734 2.31201V13.6893C7.45734 13.788 7.37601 13.8707 7.27601 13.8707Z" fill="url(#paint1_linear_9_432)"/>
<path d="M5.53729 1.42H2.98796C2.89596 1.42 2.82129 1.34534 2.82129 1.25334C2.82129 1.16134 2.89596 1.08667 2.98796 1.08667H5.53729C5.62929 1.08667 5.70396 1.16134 5.70396 1.25334C5.70396 1.34534 5.62929 1.42 5.53729 1.42Z" fill="#212121"/>
<path d="M5.53729 14.9134H2.98796C2.89596 14.9134 2.82129 14.8387 2.82129 14.7467C2.82129 14.6547 2.89596 14.58 2.98796 14.58H5.53729C5.62929 14.58 5.70396 14.6547 5.70396 14.7467C5.70396 14.8374 5.62929 14.9134 5.53729 14.9134Z" fill="black"/>
<path d="M6.84802 3.73067H1.69736C1.64669 3.73067 1.60669 3.69067 1.60669 3.64001V2.76401C1.60669 2.71334 1.64669 2.67334 1.69736 2.67334H6.84669C6.89736 2.67334 6.93736 2.71334 6.93736 2.76401V3.64001C6.93869 3.68934 6.89736 3.73067 6.84802 3.73067Z" fill="#F5F5F5"/>
<path d="M2.36661 10.6667H1.88928C1.72795 10.6667 1.59595 10.536 1.59595 10.3733V9.896C1.59595 9.73466 1.72661 9.60266 1.88928 9.60266H2.36661C2.52795 9.60266 2.65995 9.73333 2.65995 9.896V10.3733C2.65995 10.536 2.52928 10.6667 2.36661 10.6667Z" fill="#159E5C"/>
<path d="M2.36661 12.2666H1.88928C1.72795 12.2666 1.59595 12.136 1.59595 11.9733V11.496C1.59595 11.3346 1.72661 11.2026 1.88928 11.2026H2.36661C2.52795 11.2026 2.65995 11.3333 2.65995 11.496V11.9733C2.65995 12.136 2.52928 12.2666 2.36661 12.2666Z" fill="#FB5352"/>
<path d="M3.78666 12.2666H3.30932C3.14799 12.2666 3.01599 12.136 3.01599 11.9733V11.496C3.01599 11.3346 3.14666 11.2026 3.30932 11.2026H3.78666C3.94799 11.2026 4.07999 11.3333 4.07999 11.496V11.9733C4.07999 12.136 3.94799 12.2666 3.78666 12.2666Z" fill="#4587F5"/>
<path d="M5.24795 12.2666H4.76929C4.60795 12.2666 4.47595 12.136 4.47595 11.9733V11.496C4.47595 11.3346 4.60662 11.2026 4.76929 11.2026H5.24662C5.40795 11.2026 5.53995 11.3333 5.53995 11.496V11.9733C5.54129 12.136 5.40929 12.2666 5.24795 12.2666Z" fill="#159E5C"/>
<path d="M6.6254 12.2666H6.14807C5.98674 12.2666 5.85474 12.136 5.85474 11.9733V11.496C5.85474 11.3346 5.9854 11.2026 6.14807 11.2026H6.6254C6.78674 11.2026 6.91874 11.3333 6.91874 11.496V11.9733C6.91874 12.136 6.78674 12.2666 6.6254 12.2666Z" fill="#FECD41"/>
<path d="M3.78666 10.6667H3.30932C3.14799 10.6667 3.01599 10.536 3.01599 10.3733V9.896C3.01599 9.73466 3.14666 9.60266 3.30932 9.60266H3.78666C3.94799 9.60266 4.07999 9.73333 4.07999 9.896V10.3733C4.07999 10.536 3.94799 10.6667 3.78666 10.6667Z" fill="#FECD41"/>
<path d="M5.24795 10.6667H4.76929C4.60795 10.6667 4.47595 10.536 4.47595 10.3733V9.896C4.47595 9.73466 4.60662 9.60266 4.76929 9.60266H5.24662C5.40795 9.60266 5.53995 9.73333 5.53995 9.896V10.3733C5.54129 10.536 5.40929 10.6667 5.24795 10.6667Z" fill="#FF6D00"/>
<path d="M6.6254 10.6667H6.14807C5.98674 10.6667 5.85474 10.536 5.85474 10.3733V9.896C5.85474 9.73466 5.9854 9.60266 6.14807 9.60266H6.6254C6.78674 9.60266 6.91874 9.73333 6.91874 9.896V10.3733C6.91874 10.536 6.78674 10.6667 6.6254 10.6667Z" fill="#DE493C"/>
<path d="M4.26264 13.1333C4.37331 13.1333 4.46264 13.2227 4.46264 13.3333C4.46264 13.444 4.37331 13.5333 4.26264 13.5333C4.15197 13.5333 4.06264 13.444 4.06264 13.3333C4.06264 13.2227 4.15197 13.1333 4.26264 13.1333ZM4.26264 13.0667C4.11597 13.0667 3.99597 13.1867 3.99597 13.3333C3.99597 13.48 4.11597 13.6 4.26264 13.6C4.40931 13.6 4.52931 13.48 4.52931 13.3333C4.52931 13.1867 4.40931 13.0667 4.26264 13.0667Z" fill="white"/>
<path d="M6.28273 13.1333C6.30273 13.1333 6.32006 13.1507 6.32006 13.1707V13.496C6.32006 13.516 6.30273 13.5333 6.28273 13.5333H5.95739C5.93739 13.5333 5.92006 13.516 5.92006 13.496V13.1707C5.92006 13.1507 5.93739 13.1333 5.95739 13.1333H6.28273ZM6.28273 13.0667H5.95739C5.90006 13.0667 5.85339 13.1133 5.85339 13.1707V13.496C5.85339 13.5533 5.90006 13.6 5.95739 13.6H6.28273C6.34006 13.6 6.38673 13.5533 6.38673 13.496V13.1707C6.38673 13.1133 6.34006 13.0667 6.28273 13.0667Z" fill="white"/>
<path d="M2.59335 13.1627V13.504L2.25335 13.3333L2.59335 13.1627ZM2.64002 13.0667C2.63735 13.0667 2.63469 13.0666 2.63202 13.0693L2.13869 13.3173C2.12402 13.324 2.12402 13.344 2.13869 13.352L2.63202 13.6C2.63469 13.6013 2.63735 13.6026 2.64002 13.6026C2.65069 13.6026 2.65869 13.5947 2.65869 13.584V13.0853C2.66002 13.0747 2.65069 13.0667 2.64002 13.0667Z" fill="white"/>
<defs>
<linearGradient id="paint0_linear_9_432" x1="4.26267" y1="16" x2="4.26267" y2="0" gradientUnits="userSpaceOnUse">
<stop offset="0.0029098" stop-color="#212121"/>
<stop offset="1" stop-color="#4D4D4D"/>
</linearGradient>
<linearGradient id="paint1_linear_9_432" x1="4.26361" y1="13.8707" x2="4.26361" y2="2.12988" gradientUnits="userSpaceOnUse">
<stop offset="0.0085898" stop-color="#9E9E9E"/>
<stop offset="0.9987" stop-color="#616161"/>
</linearGradient>
</defs>
</svg>
