<svg width="17" height="16" viewBox="0 0 17 16" fill="none" xmlns="http://www.w3.org/2000/svg">
<path d="M15.2594 7.91734C15.2594 7.91734 16.8846 7.70924 16.9341 7.82391C17.0134 8.00936 15.8313 9.25939 15.8313 9.25939L15.2594 7.91734Z" fill="#5C6063"/>
<path d="M9.34766 8.41003C9.34766 8.41003 10.1985 7.40067 11.7798 7.05524C13.3611 6.70982 15.2864 7.34687 15.7111 8.42277C16.1697 9.58503 16.0041 10.8889 15.2326 11.8246C14.4214 12.8085 13.1728 13.8575 11.0734 13.6975C9.40712 13.5715 8.88049 12.8736 8.88049 12.8736L9.34766 8.41003Z" fill="#FCD41E"/>
<path d="M13.453 9.57931C13.8692 10.6736 13.9584 11.758 13.9443 12.303C13.9315 12.8481 13.8905 13.0335 13.8905 13.0335C13.8905 13.0335 14.4482 12.6754 14.7937 12.3427C15.0924 12.0553 15.3118 11.7453 15.3118 11.7453C15.3118 11.7453 15.4576 10.164 14.8871 8.83609C14.3166 7.5082 13.1345 6.98157 13.1345 6.98157C13.1345 6.98157 12.7296 6.89522 12.271 6.94901C11.818 7.00139 11.2616 7.201 11.2616 7.201C11.2616 7.201 12.7749 7.79841 13.453 9.57931Z" fill="#414340"/>
<path d="M10.0243 7.81122C10.0243 7.81122 10.994 8.32935 11.6183 9.80447C12.2822 11.3716 12.1492 13.6848 12.1492 13.6848C12.1492 13.6848 11.7372 13.7485 11.2856 13.7386C10.994 13.7315 10.4745 13.6253 10.4745 13.6253C10.4745 13.6253 10.6231 11.7581 10.0908 10.5222C9.85439 9.97435 9.25415 9.28634 9.25415 9.28634L9.34051 8.35625L10.0243 7.81122Z" fill="#414340"/>
<path d="M5.08222 11.4522C5.08222 11.4522 4.37864 11.758 3.74017 11.8911C3.10313 12.0242 2.57084 12.0369 2.38538 12.0511C2.19993 12.0638 1.96069 12.1445 2.00032 12.5565C2.0343 12.9146 2.5581 12.8778 2.87662 12.8622C3.39475 12.8353 4.12523 12.7023 4.7637 12.4772C5.40216 12.2521 6.05195 11.9053 6.05195 11.9053L5.08222 11.4522Z" fill="#5A6066"/>
<path opacity="0.7" d="M8.80969 8.01081C8.80969 8.01081 11.8788 4.105 12.2979 3.54723C12.7169 2.98946 13.3341 1.99283 14.0321 1.97301C14.73 1.9532 15.367 2.59024 15.6856 3.52741C16.0041 4.46458 16.0239 5.40882 15.5256 6.03879C14.8475 6.89527 12.9746 8.21183 11.4994 8.58982C10.0243 8.9678 9.16785 9.06831 9.16785 9.06831L8.80969 8.01081Z" fill="#6DA3AF"/>
<path opacity="0.7" d="M8.68933 7.7319C8.68933 7.7319 10.8411 3.98465 11.2998 3.08853C11.7585 2.191 12.1761 1.35435 12.0572 0.786669C11.9609 0.330826 11.0606 -0.140589 9.82469 0.0391996C8.58882 0.218989 7.52424 0.72438 7.37418 1.87248C7.21421 3.08853 7.2949 6.57531 7.2949 6.57531L7.11511 8.28967L8.70915 8.52892L8.68933 7.7319Z" fill="#A1C5CB"/>
<path d="M1.42559 5.48949C1.42559 5.48949 0.598846 4.9119 0.300141 6.14777C-0.046696 7.57618 1.01647 7.32277 1.01647 7.32277L1.42559 5.48949Z" fill="black"/>
<path d="M3.80671 4.08519C3.80671 4.08519 3.60711 3.09848 3.26876 2.40056C2.93042 1.70264 2.47316 1.23122 2.25232 1.11514C2.02298 0.996222 1.41 0.924023 0.806927 0.905619C0.397801 0.892878 0 0.8858 0 1.19441C0 1.55399 0.458674 1.60071 0.777198 1.63327C1.23587 1.67999 1.72144 1.73944 1.89274 1.78333C2.21126 1.86261 2.62039 2.65962 2.74921 3.0192C2.87946 3.37736 3.11729 4.30462 3.11729 4.30462L3.80671 4.08519Z" fill="#848484"/>
<path d="M7.73237 7.1543L8.09053 7.77153C8.09053 7.77153 8.68794 7.27321 8.77854 7.28312C8.86773 7.29303 9.0277 8.11978 9.0277 8.11978C9.0277 8.11978 9.58547 7.97963 9.66475 8.03059C9.74402 8.08014 9.70438 8.67896 9.70438 8.67896C9.70438 8.67896 10.4023 8.7186 10.4221 8.77806C10.4419 8.83752 10.1135 9.39529 10.1135 9.39529C10.1135 9.39529 10.6713 9.73363 10.6614 9.82423C10.6515 9.91342 10.1829 10.2829 10.1829 10.2829C10.1829 10.2829 10.6217 10.7812 10.5821 10.91C10.5425 11.0389 9.9139 11.07 9.9139 11.07C9.9139 11.07 10.064 11.7184 10.0229 11.7778C9.98327 11.8373 9.28535 11.8274 9.28535 11.8274C9.28535 11.8274 9.62369 12.3753 9.57414 12.4347C9.5246 12.4942 8.49399 12.7065 8.49399 12.7065C8.49399 12.7065 7.97586 13.2841 7.60071 13.3606C7.22981 13.4356 7.05993 13.3506 7.05993 13.3506L6.62532 12.9217C6.62532 12.9217 5.65842 13.0109 5.56924 12.9514C5.48005 12.892 5.46023 11.7552 5.46023 11.7552C5.46023 11.7552 4.843 11.8019 4.80195 11.7255C4.76089 11.649 4.89114 11.0176 4.89114 11.0176L6.50499 8.4468L7.73237 7.1543Z" fill="#FE8D00"/>
<path d="M6.42713 12.1558C6.04207 11.8826 5.59897 12.4191 5.36113 12.6046C5.00297 12.8835 4.66321 13.3719 3.49812 13.6805C2.81294 13.8617 2.84975 14.1094 2.92053 14.3388C3.00831 14.6276 3.42876 14.5978 3.93698 14.4577C4.4452 14.3175 5.03695 14.0004 5.27195 13.8305C5.56074 13.621 6.24875 12.9741 6.37758 12.8537C6.50782 12.7348 6.73574 12.3752 6.42713 12.1558Z" fill="#848484"/>
<path d="M7.50295 12.4644C7.17877 12.3328 6.965 12.5635 6.79512 13.042C6.62524 13.5205 6.30672 14.4067 6.15808 14.7465C6.00802 15.0848 5.62437 15.7205 6.04907 15.9328C6.50774 16.1622 6.71726 15.753 6.84609 15.4741C6.97491 15.1953 7.36422 14.268 7.47322 13.8999C7.58223 13.5319 7.6431 13.3322 7.69265 13.1921C7.7422 13.0534 7.87244 12.6145 7.50295 12.4644Z" fill="#848484"/>
<path d="M8.61011 12.4149C8.1571 12.4758 8.24204 13.0123 8.27177 13.4016C8.3015 13.7909 8.36096 15.0452 8.34114 15.3043C8.32132 15.5633 8.34114 16.0022 8.79981 15.9923C9.25849 15.9824 9.23867 15.4742 9.24858 15.3142C9.25849 15.1542 9.17921 13.6196 9.1693 13.3804C9.15798 13.1426 9.19761 12.3356 8.61011 12.4149Z" fill="#848484"/>
<path d="M1.65494 4.93176C0.941444 5.67215 0.457288 7.85368 0.907468 9.12636C1.36614 10.4217 2.30189 11.3093 3.97662 11.3787C5.65135 11.448 7.11514 10.4019 7.64318 8.59832C8.14858 6.87121 7.50587 4.74347 5.66975 4.09369C4.20596 3.57697 2.71102 3.83604 1.65494 4.93176Z" fill="#FEBB00"/>
<path d="M5.74045 7.17415C5.74045 7.9287 5.14729 8.54027 4.41539 8.54027C3.68349 8.54027 3.09033 8.06177 3.09033 7.17415C3.09033 6.4196 3.68349 5.79955 4.41539 5.80804C5.23223 5.81795 5.74045 6.4196 5.74045 7.17415Z" fill="black"/>
<path d="M1.30527 9.34293C1.41003 9.23817 1.65352 8.85453 1.90268 9.11359C2.15184 9.37266 1.71298 9.70109 1.63371 9.77187C1.52753 9.86531 1.31518 9.92193 1.20476 9.76196C1.12973 9.65154 1.17645 9.47175 1.30527 9.34293Z" fill="#FE8D00"/>
<path d="M3.28853 0.577164C3.25172 0.853218 3.39187 0.938158 3.75711 1.03584C4.08837 1.12361 4.76223 1.28358 4.92361 1.394C5.05386 1.48319 5.37238 2.30144 5.45166 3.30656C5.49271 3.82752 5.47148 4.323 5.45166 4.7109C5.43467 5.03367 5.5012 5.24885 5.76027 5.28849C5.99527 5.32529 6.18497 5.16532 6.21894 4.7109C6.25858 4.16303 6.28973 3.86999 6.21894 3.1565C6.16515 2.6143 6.07313 2.16695 5.90042 1.58228C5.75885 1.10379 5.5366 0.847556 5.31292 0.684755C5.04253 0.490809 4.45645 0.37614 3.97795 0.326592C3.5759 0.286954 3.32816 0.281291 3.28853 0.577164Z" fill="#848484"/>
</svg>
