<svg width="12" height="16" viewBox="0 0 12 16" fill="none" xmlns="http://www.w3.org/2000/svg">
<path d="M11.3667 16H0.722708C0.517375 16 0.350708 15.8333 0.350708 15.628V1.91997C0.350708 1.71464 0.517375 1.54797 0.722708 1.54797H11.3667C11.572 1.54797 11.7387 1.71464 11.7387 1.91997V15.628C11.7387 15.8333 11.572 16 11.3667 16Z" fill="url(#paint0_linear_9_426)"/>
<path d="M11.016 15.368H0.372C0.166667 15.368 0 15.204 0 15.0027V1.56135C0 1.36001 0.166667 1.19601 0.372 1.19601H11.016C11.2213 1.19601 11.388 1.36001 11.388 1.56135V15.0027C11.388 15.204 11.2213 15.368 11.016 15.368Z" fill="url(#paint1_linear_9_426)"/>
<path d="M9.77206 5.59201H1.61606C1.43339 5.59201 1.28406 5.44401 1.28406 5.26001C1.28406 5.07601 1.43206 4.92801 1.61606 4.92801H9.77073C9.95339 4.92801 10.1027 5.07601 10.1027 5.26001C10.1027 5.44401 9.95472 5.59201 9.77206 5.59201Z" fill="#616161"/>
<path d="M9.77206 7.41339H1.61606C1.43339 7.41339 1.28406 7.26539 1.28406 7.08139C1.28406 6.89739 1.43206 6.74939 1.61606 6.74939H9.77073C9.95339 6.74939 10.1027 6.89739 10.1027 7.08139C10.1027 7.26539 9.95472 7.41339 9.77206 7.41339Z" fill="#616161"/>
<path d="M9.77206 9.23337H1.61606C1.43339 9.23337 1.28406 9.08537 1.28406 8.90137C1.28406 8.71737 1.43206 8.56937 1.61606 8.56937H9.77073C9.95339 8.56937 10.1027 8.71737 10.1027 8.90137C10.1027 9.08537 9.95472 9.23337 9.77206 9.23337Z" fill="#616161"/>
<path d="M9.77206 11.0547H1.61606C1.43339 11.0547 1.28406 10.9067 1.28406 10.7227C1.28406 10.5387 1.43206 10.3907 1.61606 10.3907H9.77073C9.95339 10.3907 10.1027 10.5387 10.1027 10.7227C10.1027 10.9067 9.95472 11.0547 9.77206 11.0547Z" fill="#616161"/>
<path d="M5.10406 12.876H1.61606C1.43339 12.876 1.28406 12.728 1.28406 12.544C1.28406 12.36 1.43206 12.212 1.61606 12.212H5.10406C5.28672 12.212 5.43606 12.36 5.43606 12.544C5.43606 12.728 5.28672 12.876 5.10406 12.876Z" fill="#616161"/>
<path d="M11.388 11.6374L9.75329 13.6814L7.64929 15.364H11.016C11.224 15.364 11.388 15.2027 11.388 14.992V11.6374Z" fill="#BDBDBD"/>
<path d="M7.64929 15.364C7.75596 14.784 7.79196 14.1067 7.69729 13.244C7.67596 13.0467 7.82263 12.872 8.01996 12.8627C8.47863 12.84 9.26663 12.7827 9.82529 12.6334C10.6253 12.4214 11.3893 11.6374 11.3893 11.6374C11.3893 11.6374 10.924 12.8747 9.69729 14.0587C8.83196 14.892 7.64929 15.364 7.64929 15.364Z" fill="#757575"/>
<path d="M2.4573 1.876C2.2893 1.876 2.10264 1.624 2.10264 1.28533C2.10264 0.946667 2.2893 0.694667 2.4573 0.694667C2.61597 0.694667 2.79197 0.924 2.8093 1.23733H3.5053C3.4853 0.54 3.0333 0 2.45863 0C1.87064 0 1.4093 0.564 1.4093 1.28533C1.4093 2.00533 1.87064 2.57067 2.45863 2.57067C2.65064 2.57067 2.8053 2.41467 2.8053 2.224C2.80397 2.032 2.6493 1.876 2.4573 1.876Z" fill="url(#paint2_linear_9_426)"/>
<path d="M5.69472 1.876C5.52672 1.876 5.34005 1.624 5.34005 1.28533C5.34005 0.946667 5.52672 0.694667 5.69472 0.694667C5.85339 0.694667 6.02939 0.924 6.04672 1.23733H6.74272C6.72139 0.54 6.26939 0 5.69472 0C5.10672 0 4.64539 0.564 4.64539 1.28533C4.64539 2.00533 5.10672 2.57067 5.69472 2.57067C5.88672 2.57067 6.04139 2.41467 6.04139 2.224C6.04272 2.032 5.88672 1.876 5.69472 1.876Z" fill="url(#paint3_linear_9_426)"/>
<path d="M9.05593 1.876C8.88793 1.876 8.70127 1.624 8.70127 1.28533C8.70127 0.946667 8.88793 0.694667 9.05593 0.694667C9.2146 0.694667 9.3906 0.924 9.40793 1.23733H10.1039C10.0839 0.54 9.63194 0 9.05727 0C8.46927 0 8.00793 0.564 8.00793 1.28533C8.00793 2.00533 8.46927 2.57067 9.05727 2.57067C9.24927 2.57067 9.40393 2.41467 9.40393 2.224C9.4026 2.032 9.24793 1.876 9.05593 1.876Z" fill="url(#paint4_linear_9_426)"/>
<path opacity="0.2" d="M9.75068 1.392C9.82001 1.51467 9.95068 1.596 10.1 1.596H10.9893C11.0107 1.77867 11.1547 1.924 11.3387 1.94667V15.6013H0.750676V15.3667C0.750676 15.164 0.598676 14.9947 0.400009 14.9693V1.596H1.41201C1.56134 1.596 1.69201 1.51467 1.76001 1.392C1.77468 1.41733 1.79201 1.44133 1.81201 1.464C1.88801 1.548 1.99601 1.596 2.10934 1.596H2.80401C2.91734 1.596 3.02534 1.548 3.10134 1.464C3.12134 1.44133 3.13868 1.41733 3.15334 1.392C3.22268 1.51467 3.35334 1.596 3.50268 1.596H4.65068C4.80001 1.596 4.93068 1.51467 4.99868 1.392C5.01334 1.41733 5.03068 1.44133 5.05068 1.464C5.12668 1.548 5.23468 1.596 5.34801 1.596H6.04268C6.15601 1.596 6.26401 1.548 6.34001 1.464C6.36001 1.44133 6.37734 1.41733 6.39201 1.392C6.46134 1.51467 6.59201 1.596 6.74134 1.596H8.01201C8.16134 1.596 8.29201 1.51467 8.36001 1.392C8.37468 1.41733 8.39201 1.44133 8.41201 1.464C8.48801 1.548 8.59601 1.596 8.70934 1.596H9.40401C9.51734 1.596 9.62534 1.548 9.70134 1.464C9.71868 1.44133 9.73601 1.41733 9.75068 1.392ZM9.05601 0C8.49201 0 8.04668 0.518667 8.01068 1.196H6.74001C6.70268 0.518667 6.25868 0 5.69601 0C5.13201 0 4.68668 0.518667 4.65068 1.196H3.50268C3.46534 0.518667 3.02134 0 2.45868 0C1.89468 0 1.44934 0.518667 1.41334 1.196H0.373343C0.16801 1.196 0.00134277 1.36 0.00134277 1.56133V15.0027C0.00134277 15.1973 0.157343 15.3547 0.35201 15.3653V15.628C0.35201 15.8333 0.518676 16 0.72401 16H11.368C11.5733 16 11.74 15.8333 11.74 15.628V1.92C11.74 1.72133 11.584 1.56 11.388 1.54933C11.3813 1.35333 11.2187 1.196 11.0173 1.196H10.1013C10.064 0.518667 9.61868 0 9.05601 0ZM8.70668 1.196C8.73601 0.904 8.90268 0.694667 9.05468 0.694667C9.20668 0.694667 9.37201 0.904 9.40134 1.196H8.70668ZM5.34668 1.196C5.37601 0.904 5.54268 0.694667 5.69468 0.694667C5.84668 0.694667 6.01201 0.904 6.04134 1.196H5.34668ZM2.10934 1.196C2.13868 0.904 2.30534 0.694667 2.45734 0.694667C2.60934 0.694667 2.77468 0.904 2.80401 1.196H2.10934Z" fill="#424242"/>
<defs>
<linearGradient id="paint0_linear_9_426" x1="6.04484" y1="1.56411" x2="6.04484" y2="15.9933" gradientUnits="userSpaceOnUse">
<stop stop-color="#888888"/>
<stop offset="1" stop-color="#9E9E9F"/>
</linearGradient>
<linearGradient id="paint1_linear_9_426" x1="5.69387" y1="1.24188" x2="5.69387" y2="15.46" gradientUnits="userSpaceOnUse">
<stop stop-color="white"/>
<stop offset="1" stop-color="#C8C9CA"/>
</linearGradient>
<linearGradient id="paint2_linear_9_426" x1="2.45637" y1="-0.256547" x2="2.45637" y2="2.37893" gradientUnits="userSpaceOnUse">
<stop stop-color="#757575"/>
<stop offset="0.032" stop-color="#BDBDBD"/>
<stop offset="1" stop-color="#616161"/>
</linearGradient>
<linearGradient id="paint3_linear_9_426" x1="5.69392" y1="-0.256547" x2="5.69392" y2="2.37893" gradientUnits="userSpaceOnUse">
<stop stop-color="#757575"/>
<stop offset="0.032" stop-color="#BDBDBD"/>
<stop offset="1" stop-color="#616161"/>
</linearGradient>
<linearGradient id="paint4_linear_9_426" x1="9.05473" y1="-0.256547" x2="9.05473" y2="2.37893" gradientUnits="userSpaceOnUse">
<stop stop-color="#757575"/>
<stop offset="0.032" stop-color="#BDBDBD"/>
<stop offset="1" stop-color="#616161"/>
</linearGradient>
</defs>
</svg>
