<svg width="16" height="16" viewBox="0 0 16 16" fill="none" xmlns="http://www.w3.org/2000/svg">
<path d="M12.0635 9.49841C10.0317 9.49841 9.49841 7.82222 9.49841 7.82222C9.49841 7.82222 10.0317 5.71429 12.0635 5.71429C13.4603 5.71429 15.746 7.61905 15.746 7.61905C15.746 7.61905 13.4603 9.49841 12.0635 9.49841ZM4.31746 1.44762C5.91746 3.07302 4.97778 4.90159 4.97778 4.90159C4.97778 4.90159 3.02222 6.01905 1.42222 4.39365C0.330159 3.27619 0 0 0 0C0 0 3.2254 0.330159 4.31746 1.44762Z" fill="#83BF4F"/>
<path d="M15.746 7.61904C14.4762 7.36507 13.1809 7.21269 11.9111 7.36507C10.6667 7.49205 9.39681 7.94919 8.55872 8.81269C8.12697 9.24443 7.82221 9.75237 7.66983 10.3111C7.64443 10.4381 7.61903 10.5905 7.59364 10.7174C7.56824 10.8698 7.59364 10.9714 7.59364 11.1492L7.64443 12.1143L7.82221 16H6.55237L6.75554 12.1143L6.80634 11.1492C6.80634 10.9968 6.83173 10.7936 6.85713 10.6159C6.88253 10.4381 6.93332 10.2603 6.98411 10.0825C7.21269 9.39681 7.64443 8.81269 8.17777 8.38094C8.7111 7.9238 9.32062 7.61904 9.95554 7.39046C10.5905 7.18729 11.2508 7.0857 11.9111 7.0603C13.2063 7.00951 14.5016 7.26348 15.746 7.61904Z" fill="#75A843"/>
<path d="M0 0C1.32063 0.812698 2.53968 1.82857 3.60635 2.97143C4.67302 4.11429 5.6381 5.35873 6.4254 6.73016C6.80635 7.41587 7.1873 8.12698 7.41587 8.93968C7.46667 9.14286 7.51746 9.34603 7.54286 9.5746L7.56825 10.1841L7.61905 11.3524L7.82222 16H6.55238L6.75556 11.327L6.80635 10.1587L6.83175 9.87937V9.6C6.83175 9.44762 6.80635 9.26984 6.75556 9.09206C6.60318 8.38095 6.29841 7.66984 5.94286 6.98413C5.25714 5.6127 4.36825 4.34286 3.37778 3.14921C2.4127 1.95556 1.29524 0.888889 0 0Z" fill="#75A843"/>
</svg>
