<svg width="18" height="16" viewBox="0 0 18 16" fill="none" xmlns="http://www.w3.org/2000/svg">
<path d="M4.74074 6.0741H3.55556V5.33336H2.51852V4.29633H0.740741V5.33336H0V7.55559H2.78963H3.55556H4.72296H5.1363H7.7037V5.77781H4.74074V6.0741Z" fill="#BFBEBE"/>
<path d="M14.8148 5.77776V5.33331H11.2593V7.55554H14.7526H14.8415H17.7778V5.77776H14.8148Z" fill="#BFBEBE"/>
<path d="M0.0192871 7.11115H17.7778V16H0.0192871V7.11115Z" fill="#66BB6A"/>
<path d="M0.0192871 16L5.9304 7.11559L11.8548 7.11115L17.7778 16H0.0192871Z" fill="url(#paint0_linear_9_428)"/>
<path d="M1.18518 16L6.52888 7.11115H11.2696L16.5926 16H1.18518Z" fill="url(#paint1_linear_9_428)"/>
<path d="M7.63995 7.55559H7.19995L7.35551 7.11115H7.74958L7.63995 7.55559Z" fill="white"/>
<path d="M6.61628 11.7037H5.7511L6.5274 9.48147H7.16443L6.61628 11.7037ZM7.2711 9.03702H6.68739L7.09777 7.85184H7.5674L7.2711 9.03702Z" fill="white"/>
<path d="M5.55263 16H4.25781L5.39411 12.7408H6.35707L5.55263 16Z" fill="white"/>
<path d="M10.1452 7.55559H10.5837L10.4296 7.11115H10.0355L10.1452 7.55559Z" fill="white"/>
<path d="M10.6193 9.48147H11.2563L12.0326 11.7037H11.1674L10.6193 9.48147ZM10.2178 7.85184H10.6874L11.0978 9.03702H10.5141L10.2178 7.85184Z" fill="white"/>
<path d="M12.2326 16H13.5274L12.3911 12.7408H11.4266L12.2326 16Z" fill="white"/>
<path d="M15.1111 0V0.36H2.66669V0H2.0741V9.62963H2.66669V4.99852H15.1111V9.62963H15.7037V0H15.1111ZM2.66669 4.53185V0.825185H15.1111V4.53185H2.66669Z" fill="url(#paint2_linear_9_428)"/>
<path d="M13.9259 5.21185H3.85184C3.68888 5.21185 3.55554 5.07852 3.55554 4.91556V0.296296C3.55554 0.133333 3.68888 0 3.85184 0H13.9259C14.0889 0 14.2222 0.133333 14.2222 0.296296V4.91556C14.2222 5.08 14.0889 5.21185 13.9259 5.21185Z" fill="url(#paint3_linear_9_428)"/>
<path d="M13.6593 0.533329V4.67851H4.11853V0.533329H13.6593ZM13.6785 0.217773H4.09927C3.93631 0.217773 3.80298 0.351107 3.80298 0.51407V4.69777C3.80298 4.86074 3.93631 4.99407 4.09927 4.99407H13.6771C13.84 4.99407 13.9733 4.86074 13.9733 4.69777V0.51407C13.9748 0.351107 13.8415 0.217773 13.6785 0.217773Z" fill="white"/>
<path d="M7.55554 0.296295V4.88889" stroke="#FAFAFA" stroke-width="1.008" stroke-miterlimit="10"/>
<path d="M6.74523 3.40738L5.91412 4.30812L5.08301 3.40738H6.74523Z" fill="#FAFAFA"/>
<path d="M5.43262 2.78815H6.39854V3.72444H5.43262V2.78815Z" fill="#FAFAFA"/>
<path d="M11.7822 3.40738L10.9511 4.30812L10.12 3.40738H11.7822Z" fill="#FAFAFA"/>
<path d="M10.4696 2.78815H11.4355V3.72444H10.4696V2.78815Z" fill="#FAFAFA"/>
<path opacity="0.3" d="M5.90071 2.37037C6.28281 2.37037 6.59257 2.06062 6.59257 1.67852C6.59257 1.29642 6.28281 0.986664 5.90071 0.986664C5.51862 0.986664 5.20886 1.29642 5.20886 1.67852C5.20886 2.06062 5.51862 2.37037 5.90071 2.37037Z" fill="#F5F5F5"/>
<path opacity="0.3" d="M12.6297 2.27112H9.33336C9.08892 2.27112 8.88892 2.07112 8.88892 1.82668V1.53038C8.88892 1.28594 9.08892 1.08594 9.33336 1.08594H12.6297C12.8741 1.08594 13.0741 1.28594 13.0741 1.53038V1.82668C13.0741 2.07112 12.8741 2.27112 12.6297 2.27112Z" fill="#F5F5F5"/>
<defs>
<linearGradient id="paint0_linear_9_428" x1="0.0192871" y1="11.5556" x2="17.7778" y2="11.5556" gradientUnits="userSpaceOnUse">
<stop stop-color="#FDD835"/>
<stop offset="1" stop-color="#FFEB3B"/>
</linearGradient>
<linearGradient id="paint1_linear_9_428" x1="8.88888" y1="7.63629" x2="8.88888" y2="20.1573" gradientUnits="userSpaceOnUse">
<stop stop-color="#504F4F"/>
<stop offset="0.9928" stop-color="#8D8C8C"/>
</linearGradient>
<linearGradient id="paint2_linear_9_428" x1="8.88891" y1="9.68519" x2="8.88891" y2="-0.133037" gradientUnits="userSpaceOnUse">
<stop stop-color="#424242"/>
<stop offset="0.9928" stop-color="#8D8C8C"/>
</linearGradient>
<linearGradient id="paint3_linear_9_428" x1="8.88888" y1="5.41941" x2="8.88888" y2="0.314519" gradientUnits="userSpaceOnUse">
<stop offset="0.0105" stop-color="#66BB6A"/>
<stop offset="0.2382" stop-color="#61B665"/>
<stop offset="0.5267" stop-color="#53A657"/>
<stop offset="0.8468" stop-color="#3C8C40"/>
<stop offset="1" stop-color="#2E7D32"/>
</linearGradient>
</defs>
</svg>
