<svg width="17" height="16" viewBox="0 0 17 16" fill="none" xmlns="http://www.w3.org/2000/svg">
<path d="M7.99265 15.9999C12.4069 15.9999 15.9853 12.4215 15.9853 8.0073C15.9853 3.59308 12.4069 0.0146484 7.99265 0.0146484C3.57843 0.0146484 0 3.59308 0 8.0073C0 12.4215 3.57843 15.9999 7.99265 15.9999Z" fill="url(#paint0_radial_9_442)"/>
<path opacity="0.2" d="M7.99265 0.415483C12.1787 0.415483 15.5845 3.82125 15.5845 8.0073C15.5845 12.1934 12.1787 15.5991 7.99265 15.5991C3.8066 15.5991 0.400835 12.1934 0.400835 8.0073C0.400835 3.82125 3.8066 0.415483 7.99265 0.415483ZM7.99265 0.0146484C3.57812 0.0146484 0 3.59411 0 8.0073C0 12.4205 3.57812 15.9999 7.99265 15.9999C12.4072 15.9999 15.9853 12.4218 15.9853 8.0073C15.9853 3.59277 12.4058 0.0146484 7.99265 0.0146484Z" fill="#434343"/>
<path d="M7.99266 13.5736C11.0668 13.5736 13.5589 11.0815 13.5589 8.00736C13.5589 4.9332 11.0668 2.4411 7.99266 2.4411C4.91849 2.4411 2.42639 4.9332 2.42639 8.00736C2.42639 11.0815 4.91849 13.5736 7.99266 13.5736Z" fill="#FEFCE9"/>
<path d="M7.9926 11.5761C9.96357 11.5761 11.5614 9.97834 11.5614 8.00737C11.5614 6.03639 9.96357 4.4386 7.9926 4.4386C6.02162 4.4386 4.42383 6.03639 4.42383 8.00737C4.42383 9.97834 6.02162 11.5761 7.9926 11.5761Z" fill="url(#paint1_radial_9_442)"/>
<path d="M7.99259 9.07759C8.58367 9.07759 9.06282 8.59843 9.06282 8.00736C9.06282 7.41629 8.58367 6.93713 7.99259 6.93713C7.40152 6.93713 6.92236 7.41629 6.92236 8.00736C6.92236 8.59843 7.40152 9.07759 7.99259 9.07759Z" fill="#FEFCE9"/>
<path d="M14.1455 1.89459L14.1923 0.766905C14.2137 0.259181 13.762 -0.100234 13.261 0.0253606L12.3311 0.256509C12.0104 0.336676 11.7539 0.597219 11.6804 0.919223L10.6663 5.37384L10.6743 5.36983L14.1482 1.89592L14.1455 1.89459Z" fill="#09BCD4"/>
<path d="M14.1469 1.89457L15.2745 1.84781C15.7823 1.82643 16.1417 2.27804 16.0161 2.77908L15.7849 3.70902C15.7048 4.02969 15.4442 4.28622 15.1222 4.35971L10.6676 5.37382L10.6716 5.3658L14.1455 1.8919L14.1469 1.89457Z" fill="#38A4DD"/>
<path d="M8.17041 8.1583C7.98335 8.32531 7.72281 8.06477 7.88849 7.87771L12.9029 2.33951C13.1234 2.11905 13.4815 2.11905 13.7019 2.33951C13.9224 2.55997 13.9224 2.91805 13.7019 3.13851L8.17041 8.1583Z" fill="#1B87C9"/>
<path opacity="0.2" d="M13.46 0.267223C13.5923 0.267223 13.7125 0.31666 13.7994 0.407516C13.8862 0.497035 13.9303 0.621294 13.925 0.756242L13.8782 1.88125C13.8755 1.93336 13.8889 1.98413 13.9143 2.02689C13.9263 2.04693 13.9397 2.0643 13.9557 2.08033C14.0051 2.13111 14.0746 2.16184 14.1468 2.16184H14.1575L15.2825 2.11507H15.3052C15.4548 2.11507 15.5858 2.17653 15.6726 2.28743C15.7635 2.40234 15.7929 2.55866 15.7541 2.71365L15.523 3.64359C15.4682 3.86405 15.2825 4.0471 15.0607 4.09787L11.3676 4.93962C11.3222 4.95031 11.2808 4.97169 11.2474 5.00242L9.01875 7.02798L11.0363 4.79933C11.067 4.76593 11.0884 4.72451 11.0991 4.67908L11.9422 0.978038C11.9929 0.756242 12.1747 0.570522 12.3964 0.515741L13.3264 0.284593C13.3705 0.272568 13.4159 0.267223 13.46 0.267223ZM13.46 0C13.3945 0 13.3277 0.00801671 13.2609 0.0253862L12.331 0.256534C12.0103 0.336701 11.7538 0.597244 11.6803 0.919248L10.8372 4.62029L7.88839 7.87641C7.75879 8.02205 7.88705 8.21044 8.03804 8.21044C8.08213 8.21044 8.12756 8.19441 8.16897 8.15699L11.4278 5.2015L15.1208 4.35975C15.4415 4.28626 15.7033 4.02973 15.7835 3.70906L16.0147 2.77912C16.1362 2.28877 15.7955 1.84785 15.3065 1.84785C15.2958 1.84785 15.2838 1.84785 15.2718 1.84919L14.1468 1.89595H14.1441V1.89328L14.1909 0.768267C14.2096 0.327349 13.8755 0 13.46 0Z" fill="#434343"/>
<defs>
<radialGradient id="paint0_radial_9_442" cx="0" cy="0" r="1" gradientUnits="userSpaceOnUse" gradientTransform="translate(5.70856 4.26123) scale(8.30824)">
<stop offset="0.4707" stop-color="#EF5451"/>
<stop offset="0.8338" stop-color="#E53A35"/>
</radialGradient>
<radialGradient id="paint1_radial_9_442" cx="0" cy="0" r="1" gradientUnits="userSpaceOnUse" gradientTransform="translate(7.30289 6.6293) scale(4.09547)">
<stop offset="0.4707" stop-color="#EF5451"/>
<stop offset="0.8338" stop-color="#E53A35"/>
</radialGradient>
</defs>
</svg>
