<svg width="16" height="16" viewBox="0 0 16 16" fill="none" xmlns="http://www.w3.org/2000/svg">
<path d="M7.44853 14.6239C6.89045 14.176 1.70808 9.1363 1.65015 9.0812C1.42127 8.85231 1.27715 8.61495 1.23759 8.39737C1.19662 8.17131 1.26585 7.97351 1.44952 7.78984C1.62048 7.61889 1.82958 7.52846 2.05423 7.52846C2.32832 7.52846 2.60948 7.65845 2.84402 7.89439L5.1936 10.1521C5.23458 10.1917 5.28827 10.2115 5.34054 10.2115C5.39564 10.2115 5.44933 10.1903 5.49031 10.1493C5.57225 10.0674 5.57225 9.93456 5.49172 9.85262L1.74057 5.97855C1.36475 5.60273 1.18814 5.0277 1.63461 4.58123C1.80556 4.41028 2.01467 4.31985 2.23931 4.31985C2.51341 4.31985 2.79457 4.44984 3.0291 4.68579L6.86643 8.42704C6.9074 8.4666 6.96109 8.48779 7.01478 8.48779C7.06847 8.48779 7.12357 8.4666 7.16455 8.42563C7.24649 8.34368 7.2479 8.21087 7.16596 8.12752L2.55721 3.40291C2.34386 3.18957 2.21529 2.93384 2.19269 2.68518C2.1715 2.43227 2.26051 2.19774 2.45124 2.007C2.6222 1.83605 2.8313 1.74562 3.05595 1.74562C3.33004 1.74562 3.6112 1.87561 3.84574 2.11014L8.54632 6.69346C8.5873 6.73302 8.64099 6.75421 8.69467 6.75421C8.74836 6.75421 8.80346 6.73302 8.84444 6.69205C8.92638 6.6101 8.9278 6.47729 8.84585 6.39393L5.43238 2.8858C5.21762 2.67105 5.08905 2.41673 5.06786 2.16807C5.04667 1.91517 5.13568 1.68063 5.32641 1.48989C5.49737 1.31894 5.70647 1.22852 5.93112 1.22852C6.20521 1.22852 6.48637 1.3585 6.72091 1.59445C7.9727 2.82364 11.2407 6.03789 11.3509 6.15657C11.7705 6.44621 11.8552 6.00822 11.8764 5.72424C11.9005 5.39363 11.5218 4.23932 11.7422 3.20087C12.1124 1.8205 13.1791 2.04656 13.2031 2.05786C13.788 2.33196 13.6764 2.74169 13.4687 3.56539L13.4475 3.72787C13.23 4.80447 14.7248 7.99471 14.835 8.23348C15.4213 9.51636 16.0967 12.1174 13.8601 14.354C11.4088 16.8053 8.37395 15.5493 7.44853 14.6239Z" fill="#F0BE4C"/>
<path d="M10.5936 16C9.09028 16 7.81164 15.2809 7.30725 14.7821C6.85372 14.412 3.99126 11.6484 1.66004 9.38642C1.56538 9.29458 1.51028 9.24231 1.50463 9.23524C1.24042 8.97104 1.07653 8.69553 1.02991 8.43556C0.976217 8.14028 1.06805 7.87325 1.29976 7.64012C1.51169 7.42819 1.77166 7.31658 2.05423 7.31658C2.38625 7.31658 2.71969 7.46917 2.99378 7.74468L5.34054 9.9996L1.58799 6.12554C1.15565 5.6932 0.93807 4.97688 1.48485 4.43152C1.69678 4.21959 1.95674 4.10797 2.23931 4.10797C2.57134 4.10797 2.90477 4.26056 3.17887 4.53607L7.01337 8.2745L2.40603 3.5513C2.16019 3.30547 2.00902 3.00453 1.98217 2.705C1.95533 2.38569 2.06553 2.09323 2.30148 1.85728C2.51341 1.64536 2.77338 1.53374 3.05595 1.53374C3.38656 1.53374 3.71999 1.68492 3.9955 1.96042L8.69468 6.54233L5.2812 3.0342C5.03395 2.78695 4.88278 2.48601 4.85735 2.18648C4.8305 1.86859 4.94071 1.57612 5.17665 1.34018C5.38858 1.12825 5.64855 1.01663 5.93112 1.01663C6.26314 1.01663 6.59658 1.16922 6.87067 1.44473L7.88935 2.44362C9.70487 4.22383 11.2223 5.71439 11.3848 5.88111C11.4639 5.94469 11.567 5.96871 11.6108 5.94752C11.6391 5.93339 11.6702 5.8684 11.6645 5.73135C11.656 5.49116 11.6221 5.19305 11.5868 4.87798C11.5162 4.24502 11.4427 3.58945 11.5345 3.15712C11.7352 2.40689 12.1293 2.08899 12.4232 1.95195C12.8273 1.76545 13.2187 1.83044 13.2935 1.86576C14.0282 2.2105 13.8827 2.78695 13.6821 3.58663L13.6778 3.60641L13.6552 3.77171C13.5083 4.4951 14.2628 6.49429 15.0172 8.12332L15.0285 8.14593C15.5329 9.24796 16.4414 12.0751 14.0113 14.5052C12.8937 15.62 11.6843 16 10.5936 16ZM2.05423 7.74044C1.88751 7.74044 1.72927 7.80967 1.59929 7.93965C1.46507 8.07387 1.41844 8.20386 1.4467 8.35927C1.47778 8.53023 1.60353 8.73368 1.79991 8.93148C1.80133 8.93289 1.85784 8.98799 1.95533 9.08124C5.26425 12.2927 7.26204 14.2015 7.58134 14.4586L7.5983 14.4741C8.3782 15.254 11.276 16.6386 13.7103 14.2043C15.9525 11.9621 15.1091 9.34403 14.6414 8.32112L14.6315 8.29993C14.1455 7.25159 13.0406 4.70844 13.237 3.694L13.2695 3.48207C13.4871 2.6174 13.4998 2.43656 13.1311 2.25854C13.0223 2.23876 12.2424 2.1441 11.9443 3.25602C11.8694 3.61064 11.9414 4.25915 12.005 4.83136C12.0417 5.1549 12.0757 5.46149 12.0841 5.71722C12.0983 6.11989 11.9075 6.27389 11.7917 6.3304C11.5557 6.44484 11.2746 6.34736 11.0994 6.20042L11.081 6.18346C10.9948 6.09022 8.94475 4.07971 7.58841 2.7488L6.56832 1.74708C6.22076 1.3981 5.77288 1.34018 5.47194 1.64112C5.325 1.78805 5.2586 1.96042 5.27414 2.15116C5.29109 2.35037 5.39847 2.55806 5.57791 2.7375L8.99844 6.24563C9.15951 6.40952 9.15951 6.67797 8.99562 6.84186C8.83879 6.99868 8.56187 7.00151 8.4008 6.8461L3.69739 2.26136C3.34982 1.9138 2.90053 1.85587 2.60101 2.15681C2.45407 2.30375 2.38767 2.47612 2.40321 2.66685C2.42157 2.86607 2.52895 3.07517 2.70697 3.25178L7.31714 7.97921C7.47962 8.1431 7.4782 8.41155 7.31431 8.57544C7.15748 8.73226 6.88056 8.73509 6.7195 8.57968L2.88075 4.83701C2.53319 4.48662 2.0839 4.4301 1.78437 4.73104C1.41844 5.09697 1.61342 5.5505 1.89034 5.82884L5.64431 9.70573C5.80538 9.86962 5.80396 10.1367 5.64007 10.2991C5.48183 10.4574 5.20774 10.4588 5.04667 10.3048L2.69708 8.04703C2.49928 7.84781 2.27181 7.74044 2.05423 7.74044Z" fill="#F0BE4C"/>
<path d="M11.0132 6.01953C10.2375 7.60335 10.3378 9.82013 11.502 11.5989C11.6334 11.8391 11.8581 11.7218 11.7436 11.4746C10.3378 8.46661 11.8115 6.29928 11.8115 6.29928L11.0132 6.01953Z" fill="#F0BE4C"/>
<path d="M7.96277 0.0798823C8.38945 -0.0317337 8.84439 -0.0218436 9.28662 0.0812952C9.72602 0.18726 10.1654 0.410492 10.4918 0.77501C10.8111 1.1367 11.0075 1.5761 11.0739 2.03669C11.1361 2.49305 11.0781 2.96353 10.862 3.35348C10.8365 2.91549 10.7602 2.51283 10.6317 2.14125C10.5653 1.95616 10.4876 1.77955 10.3929 1.61284C10.2996 1.44753 10.1894 1.28364 10.0722 1.14942C9.8334 0.87391 9.50985 0.659155 9.14675 0.492438C8.78223 0.320069 8.38521 0.192911 7.96277 0.0798823Z" fill="#F0BE4C"/>
<path d="M8.08008 1.41928C8.31603 1.26952 8.61131 1.23844 8.88965 1.28789C9.17081 1.33734 9.43925 1.47721 9.65118 1.67077C9.8617 1.86716 10.0115 2.11441 10.1047 2.37155C10.1499 2.50012 10.1725 2.63576 10.1937 2.76715C10.2008 2.90279 10.2008 3.03842 10.1796 3.17406C10.0821 3.07092 10.0058 2.96778 9.93375 2.86747C9.85039 2.7728 9.7854 2.67249 9.71052 2.58066C9.56358 2.3984 9.42088 2.23309 9.26688 2.08615C9.10864 1.94346 8.94192 1.81771 8.74836 1.70892C8.55621 1.5973 8.34004 1.50406 8.08008 1.41928Z" fill="#F0BE4C"/>
<path d="M0.0027004 10.3711C0.201914 10.7611 0.409604 11.1228 0.651204 11.4421C0.89139 11.7614 1.1669 12.0326 1.48762 12.2093C1.64303 12.2954 1.82812 12.3703 2.00896 12.4268C2.19122 12.4848 2.38055 12.5243 2.57552 12.5512C2.96547 12.5992 3.3752 12.5907 3.80895 12.5243C3.47269 12.8168 3.0234 12.9722 2.56563 13.0061C2.10221 13.0372 1.63173 12.9369 1.2107 12.6995C0.786838 12.4579 0.476009 12.0736 0.281034 11.6653C0.0860592 11.2542 -0.0184925 10.8119 0.0027004 10.3711Z" fill="#F0BE4C"/>
<path d="M1.33785 10.2058C1.4749 10.4432 1.61054 10.6339 1.75889 10.8007C1.90582 10.9674 2.06406 11.1044 2.23643 11.2288C2.41163 11.3488 2.60378 11.4548 2.81288 11.5608C2.91743 11.6145 3.02905 11.6568 3.13925 11.719C3.25369 11.7685 3.36955 11.8207 3.49105 11.8956C3.36248 11.9437 3.23109 11.9719 3.09687 11.9931C2.96406 11.9988 2.82701 12.0058 2.69137 11.9875C2.42011 11.9507 2.14884 11.8561 1.91148 11.6908C1.67835 11.5226 1.48479 11.2895 1.37883 11.0253C1.27145 10.7625 1.24037 10.4686 1.33785 10.2058Z" fill="#F0BE4C"/>
</svg>
