<svg width="16" height="16" viewBox="0 0 16 16" fill="none" xmlns="http://www.w3.org/2000/svg">
<path d="M11.7333 12H11.625C11.4972 11.4167 11.2722 10.8802 10.95 10.3906C10.6278 9.90104 10.2361 9.47917 9.775 9.125C9.31389 8.77083 8.79445 8.49479 8.21667 8.29688C7.63889 8.09896 7.03333 8 6.4 8C5.91111 8 5.43889 8.0599 4.98333 8.17969C4.52778 8.29948 4.10278 8.46615 3.70833 8.67969C3.31389 8.89323 2.95556 9.15365 2.63333 9.46094C2.31111 9.76823 2.03333 10.1068 1.8 10.4766C1.56667 10.8464 1.38611 11.2448 1.25833 11.6719C1.13056 12.099 1.06667 12.5417 1.06667 13H0C0 12.375 0.0972222 11.7734 0.291667 11.1953C0.486111 10.6172 0.766667 10.0833 1.13333 9.59375C1.5 9.10417 1.93333 8.66927 2.43333 8.28906C2.93333 7.90885 3.5 7.60938 4.13333 7.39062C3.50556 7.00521 3.01667 6.52083 2.66667 5.9375C2.31667 5.35417 2.13889 4.70833 2.13333 4C2.13333 3.44792 2.24444 2.92969 2.46667 2.44531C2.68889 1.96094 2.99167 1.53646 3.375 1.17188C3.75833 0.807292 4.21111 0.520833 4.73333 0.3125C5.25556 0.104167 5.81111 0 6.4 0C6.98889 0 7.54167 0.104167 8.05833 0.3125C8.575 0.520833 9.02778 0.804688 9.41667 1.16406C9.80556 1.52344 10.1111 1.94792 10.3333 2.4375C10.5556 2.92708 10.6667 3.44792 10.6667 4C10.6667 4.34375 10.6222 4.67969 10.5333 5.00781C10.4444 5.33594 10.3111 5.64583 10.1333 5.9375C9.95556 6.22917 9.74722 6.4974 9.50833 6.74219C9.26944 6.98698 8.98889 7.20312 8.66667 7.39062C9.28889 7.61458 9.86111 7.92188 10.3833 8.3125C10.9056 8.70312 11.3556 9.16146 11.7333 9.6875V12ZM3.2 4C3.2 4.41667 3.28333 4.80469 3.45 5.16406C3.61667 5.52344 3.84444 5.84115 4.13333 6.11719C4.42222 6.39323 4.76111 6.60938 5.15 6.76562C5.53889 6.92188 5.95556 7 6.4 7C6.83889 7 7.25278 6.92188 7.64167 6.76562C8.03056 6.60938 8.36944 6.39583 8.65833 6.125C8.94722 5.85417 9.17778 5.53646 9.35 5.17188C9.52222 4.80729 9.60556 4.41667 9.6 4C9.6 3.58854 9.51667 3.20052 9.35 2.83594C9.18333 2.47135 8.95556 2.15365 8.66667 1.88281C8.37778 1.61198 8.03611 1.39583 7.64167 1.23438C7.24722 1.07292 6.83333 0.994792 6.4 1C5.95556 1 5.54167 1.07812 5.15833 1.23438C4.775 1.39062 4.43611 1.60417 4.14167 1.875C3.84722 2.14583 3.61667 2.46615 3.45 2.83594C3.28333 3.20573 3.2 3.59375 3.2 4ZM13.8667 13H16V14H13.8667V16H12.8V14H10.6667V13H12.8V11H13.8667V13Z" fill="#707070"/>
</svg>
