<svg width="13" height="13" viewBox="0 0 13 13" fill="none" xmlns="http://www.w3.org/2000/svg">
<path d="M6.99998 1.00001C6.99998 0.893919 6.95783 0.792178 6.88282 0.717163C6.8078 0.642149 6.70606 0.600006 6.59998 0.600006C6.49389 0.600006 6.39215 0.642149 6.31713 0.717163C6.24212 0.792178 6.19998 0.893919 6.19998 1.00001V6.20001H0.999976C0.893889 6.20001 0.792148 6.24215 0.717133 6.31716C0.642118 6.39218 0.599976 6.49392 0.599976 6.60001C0.599976 6.70609 0.642118 6.80783 0.717133 6.88285C0.792148 6.95786 0.893889 7.00001 0.999976 7.00001H6.19998V12.2C6.19998 12.3061 6.24212 12.4078 6.31713 12.4828C6.39215 12.5579 6.49389 12.6 6.59998 12.6C6.70606 12.6 6.8078 12.5579 6.88282 12.4828C6.95783 12.4078 6.99998 12.3061 6.99998 12.2V7.00001H12.2C12.3061 7.00001 12.4078 6.95786 12.4828 6.88285C12.5578 6.80783 12.6 6.70609 12.6 6.60001C12.6 6.49392 12.5578 6.39218 12.4828 6.31716C12.4078 6.24215 12.3061 6.20001 12.2 6.20001H6.99998V1.00001Z" fill="#707070"/>
</svg>
