<svg width="9" height="1" viewBox="0 0 9 1" fill="none" xmlns="http://www.w3.org/2000/svg">
<path d="M1 0.5C1 0.598891 0.970676 0.695561 0.915735 0.777785C0.860794 0.86001 0.782705 0.924096 0.691342 0.96194C0.599979 0.999784 0.499446 1.00969 0.402455 0.990393C0.305465 0.9711 0.216373 0.92348 0.146447 0.853554C0.0765207 0.783628 0.0289002 0.694536 0.00960759 0.597546C-0.00968502 0.500555 0.000216641 0.400021 0.0380605 0.308658C0.0759043 0.217295 0.139991 0.139206 0.222215 0.0842652C0.30444 0.0293245 0.40111 0 0.5 0C0.632609 0 0.759785 0.0526785 0.853554 0.146447C0.947322 0.240215 1 0.367392 1 0.5ZM8.5 0C8.40111 0 8.30444 0.0293245 8.22221 0.0842652C8.13999 0.139206 8.0759 0.217295 8.03806 0.308658C8.00022 0.400021 7.99031 0.500555 8.00961 0.597546C8.0289 0.694536 8.07652 0.783628 8.14645 0.853554C8.21637 0.92348 8.30546 0.9711 8.40245 0.990393C8.49944 1.00969 8.59998 0.999784 8.69134 0.96194C8.7827 0.924096 8.86079 0.86001 8.91574 0.777785C8.97068 0.695561 9 0.598891 9 0.5C9 0.367392 8.94732 0.240215 8.85355 0.146447C8.75979 0.0526785 8.63261 0 8.5 0ZM4.5 0C4.40111 0 4.30444 0.0293245 4.22222 0.0842652C4.13999 0.139206 4.0759 0.217295 4.03806 0.308658C4.00022 0.400021 3.99032 0.500555 4.00961 0.597546C4.0289 0.694536 4.07652 0.783628 4.14645 0.853554C4.21637 0.92348 4.30546 0.9711 4.40246 0.990393C4.49945 1.00969 4.59998 0.999784 4.69134 0.96194C4.7827 0.924096 4.8608 0.86001 4.91574 0.777785C4.97068 0.695561 5 0.598891 5 0.5C5 0.367392 4.94732 0.240215 4.85355 0.146447C4.75979 0.0526785 4.63261 0 4.5 0Z" fill="#424344"/>
</svg>
