<svg width="15" height="13" viewBox="0 0 15 13" fill="none" xmlns="http://www.w3.org/2000/svg">
<path d="M13.04 0.24C12.72 -0.08 12.16 -0.08 11.76 0.24L9.84 2.16C8.99499 1.84632 8.10135 1.68384 7.2 1.68C4.16 1.76 1.44 3.36 0 6C0.16 6.32 0.4 6.64 0.64 6.96C1.28 7.84 2.08 8.56 2.96 9.12L1.6 10.48C1.28 10.8 1.2 11.36 1.6 11.76C1.92 12.08 2.48 12.16 2.88 11.76L13.04 1.52C13.36 1.12 13.36 0.56 13.04 0.24ZM4.56 7.44L3.52 8.48C2.56 7.92 1.68 7.12 1.04 6.16C2 4.8 3.28 3.84 4.8 3.36C3.76 4.48 3.68 6.24 4.56 7.44ZM7.28 4.8C6.88 4.4 6.96 3.76 7.36 3.36C7.76 3.04 8.32 3.04 8.72 3.36L7.28 4.8ZM13.84 5.2C13.44 4.64 12.96 4.08 12.4 3.68L11.6 4.48C12.24 4.96 12.8 5.52 13.28 6.24C11.92 8.32 9.6 9.6 7.12 9.6H6.48L5.68 10.4C6.24 10.32 6.72 10.4 7.2 10.4C9.84 10.4 12.32 9.12 13.84 6.96C14.08 6.64 14.24 6.32 14.48 6C14.24 5.76 14.08 5.44 13.84 5.2ZM10.4 5.6L7.2 8.8C8.96 8.8 10.4 7.36 10.4 5.6Z" fill="#707070"/>
</svg>
