<svg width="16" height="16" viewBox="0 0 16 16" fill="none" xmlns="http://www.w3.org/2000/svg">
<path d="M11.5556 5.33333H9.28889V2.66667H6.71111V5.33333H4.44444L8 8.88889L11.5556 5.33333ZM14.2222 0H1.76889C0.782222 0 0 0.8 0 1.77778V14.2222C0 15.2 0.782222 16 1.76889 16H14.2222C15.2 16 16 15.2 16 14.2222V1.77778C16 0.8 15.2 0 14.2222 0ZM14.2222 14.2222H1.77778V11.5556H4.94222C5.55556 12.6133 6.69333 13.3333 8.00889 13.3333C9.32444 13.3333 10.4533 12.6133 11.0756 11.5556H14.2222V14.2222ZM14.2222 9.77778H9.78667C9.78667 10.7556 8.98667 11.5556 8.00889 11.5556C7.03111 11.5556 6.23111 10.7556 6.23111 9.77778H1.77778L1.76889 1.77778H14.2222V9.77778Z" fill="#707070"/>
</svg>
