<svg width="16" height="16" viewBox="0 0 16 16" fill="none" xmlns="http://www.w3.org/2000/svg">
<path d="M11.4286 16H4.57143V14.4H11.4286V16ZM11.4286 13.6H4.57143L4.31657 12C4.17946 11.4708 3.95271 10.9549 3.64114 10.4632C3.23657 10.0632 2.81486 9.7216 2.40686 9.388C1.66473 8.90105 1.06942 8.31501 0.656042 7.66442C0.242669 7.01384 0.0196021 6.3119 0 5.6C3.16163e-08 4.11479 0.842855 2.69041 2.34315 1.6402C3.84344 0.589998 5.87827 0 8 0C10.1217 0 12.1566 0.589998 13.6569 1.6402C15.1571 2.69041 16 4.11479 16 5.6C15.977 6.30769 15.7537 7.00517 15.3431 7.65207C14.9326 8.29898 14.3428 8.88247 13.608 9.3688L13.5886 9.3848C13.1559 9.72911 12.7474 10.0879 12.3646 10.46C12.0533 10.953 11.8258 11.4699 11.6869 12L11.4286 13.6ZM8 1.6C6.48503 1.60127 5.03264 2.02311 3.96139 2.77298C2.89015 3.52285 2.28753 4.53952 2.28571 5.6C2.28571 6.8352 3.02171 7.4344 4.13486 8.3424C4.55771 8.688 5.03771 9.0784 5.50629 9.5352C6.07496 10.3087 6.46347 11.1407 6.65714 12H9.344C9.54267 11.1432 9.93055 10.3133 10.4937 9.54C10.9509 9.0832 11.4297 8.6904 11.8514 8.3448L11.8686 8.3304C12.9794 7.4184 13.7143 6.816 13.7143 5.6C13.7125 4.53952 13.1098 3.52285 12.0386 2.77298C10.9674 2.02311 9.51497 1.60127 8 1.6Z" fill="#707070"/>
</svg>
