<svg width="16" height="16" viewBox="0 0 16 16" fill="none" xmlns="http://www.w3.org/2000/svg">
<path d="M2.13333 0.941176H10.6667C10.9496 0.941176 11.2209 1.04034 11.4209 1.21684C11.621 1.39335 11.7333 1.63274 11.7333 1.88235V6.60894C12.0942 6.63779 12.4513 6.69608 12.8 6.78306V1.88235C12.8 1.38312 12.5752 0.904338 12.1752 0.551328C11.7751 0.198319 11.2325 0 10.6667 0H2.13333C1.56754 0 1.02492 0.198319 0.624839 0.551328C0.224761 0.904338 0 1.38312 0 1.88235V13.1765C0 13.6757 0.224761 14.1545 0.624839 14.5075C1.02492 14.8605 1.56754 15.0588 2.13333 15.0588H6.67413C6.40246 14.7685 6.16747 14.4529 5.97333 14.1176H2.13333C1.85044 14.1176 1.57913 14.0185 1.37909 13.842C1.17905 13.6655 1.06667 13.4261 1.06667 13.1765H5.55413C5.45543 12.8688 5.38937 12.5537 5.3568 12.2353H1.06667V1.88235C1.06667 1.63274 1.17905 1.39335 1.37909 1.21684C1.57913 1.04034 1.85044 0.941176 2.13333 0.941176ZM3.2 1.88235C2.9171 1.88235 2.64579 1.98151 2.44575 2.15802C2.24571 2.33452 2.13333 2.57391 2.13333 2.82353V3.76471C2.13333 4.01432 2.24571 4.25371 2.44575 4.43022C2.64579 4.60672 2.9171 4.70588 3.2 4.70588H9.6C9.8829 4.70588 10.1542 4.60672 10.3542 4.43022C10.5543 4.25371 10.6667 4.01432 10.6667 3.76471V2.82353C10.6667 2.57391 10.5543 2.33452 10.3542 2.15802C10.1542 1.98151 9.8829 1.88235 9.6 1.88235H3.2ZM9.6 2.82353V3.76471H3.2V2.82353H9.6ZM16 11.7647C16 12.888 15.4943 13.9652 14.5941 14.7595C13.6939 15.5538 12.473 16 11.2 16C9.92696 16 8.70606 15.5538 7.80589 14.7595C6.90571 13.9652 6.4 12.888 6.4 11.7647C6.4 10.6414 6.90571 9.56417 7.80589 8.7699C8.70606 7.97563 9.92696 7.52941 11.2 7.52941C12.473 7.52941 13.6939 7.97563 14.5941 8.7699C15.4943 9.56417 16 10.6414 16 11.7647ZM10.688 9.91435C10.6188 9.87244 10.5385 9.84718 10.4548 9.84108C10.3712 9.83497 10.2872 9.84822 10.2112 9.87953C10.1491 9.90363 10.093 9.93815 10.0459 9.98118C9.9465 10.071 9.89098 10.1916 9.8912 10.3172V13.2113C9.89055 13.2737 9.90388 13.3356 9.93042 13.3934C9.95696 13.4512 9.9962 13.5038 10.0459 13.5482C10.0946 13.591 10.1512 13.626 10.2133 13.6518C10.3216 13.6955 10.4444 13.7022 10.5579 13.6706C10.607 13.6563 10.6537 13.636 10.6965 13.6104L13.1456 12.1355C13.2201 12.0922 13.2801 12.0321 13.3195 11.9614C13.36 11.8902 13.3808 11.8116 13.3803 11.7319C13.3797 11.6522 13.3578 11.5738 13.3163 11.5031C13.2746 11.4334 13.2132 11.3744 13.1381 11.3318L10.688 9.91435Z" fill="#707070"/>
</svg>
