<svg width="14" height="14" viewBox="0 0 14 14" fill="none" xmlns="http://www.w3.org/2000/svg">
<path fill-rule="evenodd" clip-rule="evenodd" d="M3.603 10.238C5.88467 9.90467 7.45567 9.93333 9.74033 10.2497C9.90579 10.2737 10.057 10.3567 10.166 10.4835C10.275 10.6102 10.3344 10.7722 10.3333 10.9393C10.3333 11.0993 10.2783 11.2547 10.179 11.376C10.0059 11.5875 9.8285 11.7956 9.647 12H10.5273C10.5827 11.934 10.6383 11.8667 10.6947 11.7983C10.8924 11.5559 11.0002 11.2525 11 10.9397C11 10.2647 10.5073 9.683 9.83167 9.58967C7.493 9.266 5.85833 9.235 3.50667 9.57867C2.824 9.67833 2.33333 10.269 2.33333 10.9487C2.33333 11.2503 2.43167 11.5487 2.618 11.7903C2.673 11.8617 2.72733 11.9317 2.78133 12.0003H3.64033C3.47147 11.7982 3.30677 11.5926 3.14633 11.3837C3.05099 11.2586 2.99955 11.1056 3 10.9483C3 10.5893 3.258 10.2883 3.603 10.238ZM6.66667 7C6.92931 7 7.18938 6.94827 7.43203 6.84776C7.67468 6.74725 7.89516 6.59993 8.08088 6.41421C8.2666 6.2285 8.41392 6.00802 8.51443 5.76537C8.61493 5.52272 8.66667 5.26264 8.66667 5C8.66667 4.73736 8.61493 4.47728 8.51443 4.23463C8.41392 3.99198 8.2666 3.7715 8.08088 3.58579C7.89516 3.40007 7.67468 3.25275 7.43203 3.15224C7.18938 3.05173 6.92931 3 6.66667 3C6.13623 3 5.62753 3.21071 5.25245 3.58579C4.87738 3.96086 4.66667 4.46957 4.66667 5C4.66667 5.53043 4.87738 6.03914 5.25245 6.41421C5.62753 6.78929 6.13623 7 6.66667 7ZM6.66667 7.66667C7.37391 7.66667 8.05219 7.38572 8.55228 6.88562C9.05238 6.38552 9.33333 5.70724 9.33333 5C9.33333 4.29276 9.05238 3.61448 8.55228 3.11438C8.05219 2.61428 7.37391 2.33333 6.66667 2.33333C5.95942 2.33333 5.28115 2.61428 4.78105 3.11438C4.28095 3.61448 4 4.29276 4 5C4 5.70724 4.28095 6.38552 4.78105 6.88562C5.28115 7.38572 5.95942 7.66667 6.66667 7.66667Z" fill="#707070"/>
<path fill-rule="evenodd" clip-rule="evenodd" d="M6.66667 12.6667C9.98033 12.6667 12.6667 9.98033 12.6667 6.66667C12.6667 3.353 9.98033 0.666667 6.66667 0.666667C3.353 0.666667 0.666667 3.353 0.666667 6.66667C0.666667 9.98033 3.353 12.6667 6.66667 12.6667ZM6.66667 13.3333C10.3487 13.3333 13.3333 10.3487 13.3333 6.66667C13.3333 2.98467 10.3487 0 6.66667 0C2.98467 0 0 2.98467 0 6.66667C0 10.3487 2.98467 13.3333 6.66667 13.3333Z" fill="#707070"/>
</svg>
