<svg width="16" height="16" viewBox="0 0 16 16" fill="none" xmlns="http://www.w3.org/2000/svg">
<path d="M8 13.3333C8.31111 13.3333 8.57422 13.2258 8.78933 13.0107C9.00444 12.7956 9.1117 12.5327 9.11111 12.2222C9.11111 11.9111 9.00356 11.648 8.78844 11.4329C8.57333 11.2178 8.31052 11.1105 8 11.1111C7.68889 11.1111 7.42578 11.2187 7.21067 11.4338C6.99556 11.6489 6.8883 11.9117 6.88889 12.2222C6.88889 12.5333 6.99644 12.7964 7.21156 13.0116C7.42667 13.2267 7.68948 13.3339 8 13.3333ZM7.2 9.91111H8.84444C8.84444 9.37778 8.9037 8.98518 9.02222 8.73333C9.14074 8.48148 9.39259 8.16296 9.77778 7.77778C10.2963 7.25926 10.6628 6.82578 10.8773 6.47733C11.0919 6.12889 11.1994 5.73274 11.2 5.28889C11.2 4.5037 10.9333 3.87052 10.4 3.38933C9.86667 2.90815 9.14815 2.66726 8.24444 2.66667C7.42963 2.66667 6.73719 2.86667 6.16711 3.26667C5.59704 3.66667 5.20059 4.22222 4.97778 4.93333L6.44445 5.51111C6.54815 5.11111 6.75556 4.78904 7.06667 4.54489C7.37778 4.30074 7.74074 4.17837 8.15556 4.17778C8.55556 4.17778 8.88889 4.28533 9.15556 4.50044C9.42222 4.71556 9.55556 5.00059 9.55556 5.35556C9.55556 5.60741 9.47407 5.87407 9.31111 6.15556C9.14815 6.43704 8.87407 6.74815 8.48889 7.08889C8 7.51852 7.66281 7.92978 7.47733 8.32267C7.29185 8.71556 7.19941 9.24504 7.2 9.91111ZM1.77778 16C1.28889 16 0.870223 15.8258 0.521779 15.4773C0.173335 15.1289 -0.000591083 14.7105 1.50915e-06 14.2222V1.77778C1.50915e-06 1.28889 0.174224 0.870223 0.522668 0.521779C0.871112 0.173335 1.28948 -0.000591083 1.77778 1.50915e-06H14.2222C14.7111 1.50915e-06 15.1298 0.174224 15.4782 0.522668C15.8267 0.871112 16.0006 1.28948 16 1.77778V14.2222C16 14.7111 15.8258 15.1298 15.4773 15.4782C15.1289 15.8267 14.7105 16.0006 14.2222 16H1.77778ZM1.77778 14.2222H14.2222V1.77778H1.77778V14.2222Z" fill="#707070"/>
</svg>
